<?xml version="1.0" encoding="UTF-8"?><svg xmlns="http://www.w3.org/2000/svg" xmlns:xlink="http://www.w3.org/1999/xlink" contentScriptType="application/ecmascript" contentStyleType="text/css" height="484px" preserveAspectRatio="none" style="width:2043px;height:484px;" version="1.1" viewBox="0 0 2043 484" width="2043px" zoomAndPan="magnify">
    <defs>
        <filter height="300%" id="f1rb62m5v6k67k" width="300%" x="-1" y="-1">
            <feGaussianBlur result="blurOut" stdDeviation="2.0"/>
            <feColorMatrix in="blurOut" result="blurOut2" type="matrix" values="0 0 0 0 0 0 0 0 0 0 0 0 0 0 0 0 0 0 .4 0"/>
            <feOffset dx="4.0" dy="4.0" in="blurOut2" result="blurOut3"/>
            <feBlend in="SourceGraphic" in2="blurOut3" mode="normal"/>
        </filter>
    </defs>
    <g>
        <rect fill="none" height="37.9375" style="stroke:none;stroke-width:1.0;" width="919" x="555" y="5"/>
        <text fill="#000000" font-family="sans-serif" font-size="24" font-weight="bold" lengthAdjust="spacing" textLength="909" x="560" y="32.2773">Simple Uml Diagram For Foods Library (Not all relationships shown)</text>
        <!--MD5=[7db3c59d38ae5b37b484eb2df9368145]
cluster java.util-->
        <polygon fill="#FFFFFF" filter="url(#f1rb62m5v6k67k)" points="1814,162.9375,1880,162.9375,1887,185.2344,2026,185.2344,2026,261.9375,1814,261.9375,1814,162.9375" style="stroke:#000000;stroke-width:2.0;"/>
        <line style="stroke:#000000;stroke-width:2.0;" x1="1814" x2="1887" y1="185.2344" y2="185.2344"/>
        <text fill="#000000" font-family="sans-serif" font-size="14" font-weight="bold" lengthAdjust="spacing" textLength="60" x="1818" y="177.9326">java.util</text>
        <!--MD5=[1f10c24ee3bcbe65d3f72ed88b4c20d3]
cluster io.github.xjrga.foods-->
        <polygon fill="#FFFFFF" filter="url(#f1rb62m5v6k67k)" points="16,54.9375,185,54.9375,192,77.2344,1790,77.2344,1790,477.9375,16,477.9375,16,54.9375" style="stroke:#000000;stroke-width:2.0;"/>
        <line style="stroke:#000000;stroke-width:2.0;" x1="16" x2="192" y1="77.2344" y2="77.2344"/>
        <text fill="#000000" font-family="sans-serif" font-size="14" font-weight="bold" lengthAdjust="spacing" textLength="163" x="20" y="69.9326">io.github.xjrga.foods</text>
        <!--MD5=[8479184e23c2bec09445fccfd361f5d2]
class java.util.ArrayList-->
        <rect codeLine="8" fill="#FEFECE" filter="url(#f1rb62m5v6k67k)" height="48" id="java.util.ArrayList" style="stroke:#A80036;stroke-width:1.5;" width="179" x="1830.5" y="197.9375"/>
        <ellipse cx="1845.5" cy="213.9375" fill="#ADD1B2" rx="11" ry="11" style="stroke:#A80036;stroke-width:1.0;"/>
        <path d="M1848.4688,219.5781 Q1847.8906,219.875 1847.25,220.0156 Q1846.6094,220.1719 1845.9063,220.1719 Q1843.4063,220.1719 1842.0781,218.5313 Q1840.7656,216.875 1840.7656,213.75 Q1840.7656,210.625 1842.0781,208.9688 Q1843.4063,207.3125 1845.9063,207.3125 Q1846.6094,207.3125 1847.25,207.4688 Q1847.9063,207.625 1848.4688,207.9219 L1848.4688,210.6406 Q1847.8438,210.0625 1847.25,209.7969 Q1846.6563,209.5156 1846.0313,209.5156 Q1844.6875,209.5156 1844,210.5938 Q1843.3125,211.6563 1843.3125,213.75 Q1843.3125,215.8438 1844,216.9219 Q1844.6875,217.9844 1846.0313,217.9844 Q1846.6563,217.9844 1847.25,217.7188 Q1847.8438,217.4375 1848.4688,216.8594 L1848.4688,219.5781 Z " fill="#000000"/>
        <text fill="#000000" font-family="sans-serif" font-size="14" lengthAdjust="spacing" textLength="57" x="1859.5" y="218.7842">ArrayList</text>
        <rect fill="#FFFFFF" height="15.9688" style="stroke:#000000;stroke-width:1.0;stroke-dasharray:2.0,2.0;" width="88" x="1924.5" y="194.9375"/>
        <text fill="#000000" font-family="sans-serif" font-size="12" font-style="italic" lengthAdjust="spacing" textLength="86" x="1925.5" y="207.0762">Abstract_food</text>
        <line style="stroke:#A80036;stroke-width:1.5;" x1="1831.5" x2="2008.5" y1="229.9375" y2="229.9375"/>
        <line style="stroke:#A80036;stroke-width:1.5;" x1="1831.5" x2="2008.5" y1="237.9375" y2="237.9375"/>
        <!--MD5=[6cd5c8101aca539bfc11effe5739e75f]
class io.github.xjrga.foods.Interface_dri_get-->
        <rect codeLine="9" fill="#FEFECE" filter="url(#f1rb62m5v6k67k)" height="48" id="io.github.xjrga.foods.Interface_dri_get" style="stroke:#A80036;stroke-width:1.5;" width="147" x="1008.5" y="89.9375"/>
        <ellipse cx="1023.5" cy="105.9375" fill="#B4A7E5" rx="11" ry="11" style="stroke:#A80036;stroke-width:1.0;"/>
        <path d="M1019.4219,101.7031 L1019.4219,99.5469 L1026.8125,99.5469 L1026.8125,101.7031 L1024.3438,101.7031 L1024.3438,109.7813 L1026.8125,109.7813 L1026.8125,111.9375 L1019.4219,111.9375 L1019.4219,109.7813 L1021.8906,109.7813 L1021.8906,101.7031 L1019.4219,101.7031 Z " fill="#000000"/>
        <text fill="#000000" font-family="sans-serif" font-size="14" font-style="italic" lengthAdjust="spacing" textLength="115" x="1037.5" y="110.7842">Interface_dri_get</text>
        <line style="stroke:#A80036;stroke-width:1.5;" x1="1009.5" x2="1154.5" y1="121.9375" y2="121.9375"/>
        <line style="stroke:#A80036;stroke-width:1.5;" x1="1009.5" x2="1154.5" y1="129.9375" y2="129.9375"/>
        <!--MD5=[d0ff42adccf4b79354ab07210bf44ede]
class io.github.xjrga.foods.Interface_dri_set-->
        <rect codeLine="10" fill="#FEFECE" filter="url(#f1rb62m5v6k67k)" height="48" id="io.github.xjrga.foods.Interface_dri_set" style="stroke:#A80036;stroke-width:1.5;" width="145" x="828.5" y="89.9375"/>
        <ellipse cx="843.5" cy="105.9375" fill="#B4A7E5" rx="11" ry="11" style="stroke:#A80036;stroke-width:1.0;"/>
        <path d="M839.4219,101.7031 L839.4219,99.5469 L846.8125,99.5469 L846.8125,101.7031 L844.3438,101.7031 L844.3438,109.7813 L846.8125,109.7813 L846.8125,111.9375 L839.4219,111.9375 L839.4219,109.7813 L841.8906,109.7813 L841.8906,101.7031 L839.4219,101.7031 Z " fill="#000000"/>
        <text fill="#000000" font-family="sans-serif" font-size="14" font-style="italic" lengthAdjust="spacing" textLength="113" x="857.5" y="110.7842">Interface_dri_set</text>
        <line style="stroke:#A80036;stroke-width:1.5;" x1="829.5" x2="972.5" y1="121.9375" y2="121.9375"/>
        <line style="stroke:#A80036;stroke-width:1.5;" x1="829.5" x2="972.5" y1="129.9375" y2="129.9375"/>
        <!--MD5=[8b3a38b7fda0c24a93ec2054269b906b]
class io.github.xjrga.foods.Interface_food_get-->
        <rect codeLine="11" fill="#FEFECE" filter="url(#f1rb62m5v6k67k)" height="48" id="io.github.xjrga.foods.Interface_food_get" style="stroke:#A80036;stroke-width:1.5;" width="161" x="32.5" y="89.9375"/>
        <ellipse cx="47.5" cy="105.9375" fill="#B4A7E5" rx="11" ry="11" style="stroke:#A80036;stroke-width:1.0;"/>
        <path d="M43.4219,101.7031 L43.4219,99.5469 L50.8125,99.5469 L50.8125,101.7031 L48.3438,101.7031 L48.3438,109.7813 L50.8125,109.7813 L50.8125,111.9375 L43.4219,111.9375 L43.4219,109.7813 L45.8906,109.7813 L45.8906,101.7031 L43.4219,101.7031 Z " fill="#000000"/>
        <text fill="#000000" font-family="sans-serif" font-size="14" font-style="italic" lengthAdjust="spacing" textLength="129" x="61.5" y="110.7842">Interface_food_get</text>
        <line style="stroke:#A80036;stroke-width:1.5;" x1="33.5" x2="192.5" y1="121.9375" y2="121.9375"/>
        <line style="stroke:#A80036;stroke-width:1.5;" x1="33.5" x2="192.5" y1="129.9375" y2="129.9375"/>
        <!--MD5=[45ade3e04a7ed6bcbd61ac8963e33617]
class io.github.xjrga.foods.Interface_food_set-->
        <rect codeLine="12" fill="#FEFECE" filter="url(#f1rb62m5v6k67k)" height="48" id="io.github.xjrga.foods.Interface_food_set" style="stroke:#A80036;stroke-width:1.5;" width="159" x="634.5" y="89.9375"/>
        <ellipse cx="649.5" cy="105.9375" fill="#B4A7E5" rx="11" ry="11" style="stroke:#A80036;stroke-width:1.0;"/>
        <path d="M645.4219,101.7031 L645.4219,99.5469 L652.8125,99.5469 L652.8125,101.7031 L650.3438,101.7031 L650.3438,109.7813 L652.8125,109.7813 L652.8125,111.9375 L645.4219,111.9375 L645.4219,109.7813 L647.8906,109.7813 L647.8906,101.7031 L645.4219,101.7031 Z " fill="#000000"/>
        <text fill="#000000" font-family="sans-serif" font-size="14" font-style="italic" lengthAdjust="spacing" textLength="127" x="663.5" y="110.7842">Interface_food_set</text>
        <line style="stroke:#A80036;stroke-width:1.5;" x1="635.5" x2="792.5" y1="121.9375" y2="121.9375"/>
        <line style="stroke:#A80036;stroke-width:1.5;" x1="635.5" x2="792.5" y1="129.9375" y2="129.9375"/>
        <!--MD5=[ff4fa1730da784a9e251b47704c295cd]
class io.github.xjrga.foods.Interface_food_coefficient-->
        <rect codeLine="13" fill="#FEFECE" filter="url(#f1rb62m5v6k67k)" height="48" id="io.github.xjrga.foods.Interface_food_coefficient" style="stroke:#A80036;stroke-width:1.5;" width="209" x="390.5" y="89.9375"/>
        <ellipse cx="405.5" cy="105.9375" fill="#B4A7E5" rx="11" ry="11" style="stroke:#A80036;stroke-width:1.0;"/>
        <path d="M401.4219,101.7031 L401.4219,99.5469 L408.8125,99.5469 L408.8125,101.7031 L406.3438,101.7031 L406.3438,109.7813 L408.8125,109.7813 L408.8125,111.9375 L401.4219,111.9375 L401.4219,109.7813 L403.8906,109.7813 L403.8906,101.7031 L401.4219,101.7031 Z " fill="#000000"/>
        <text fill="#000000" font-family="sans-serif" font-size="14" font-style="italic" lengthAdjust="spacing" textLength="177" x="419.5" y="110.7842">Interface_food_coefficient</text>
        <line style="stroke:#A80036;stroke-width:1.5;" x1="391.5" x2="598.5" y1="121.9375" y2="121.9375"/>
        <line style="stroke:#A80036;stroke-width:1.5;" x1="391.5" x2="598.5" y1="129.9375" y2="129.9375"/>
        <!--MD5=[a9e18a06d5e58b84d8df81e0bcfef025]
class io.github.xjrga.foods.Abstract_dri-->
        <rect codeLine="15" fill="#FEFECE" filter="url(#f1rb62m5v6k67k)" height="48" id="io.github.xjrga.foods.Abstract_dri" style="stroke:#A80036;stroke-width:1.5;" width="113" x="934.5" y="197.9375"/>
        <ellipse cx="949.5" cy="213.9375" fill="#A9DCDF" rx="11" ry="11" style="stroke:#A80036;stroke-width:1.0;"/>
        <path d="M949.6094,209.2813 L948.4531,214.3594 L950.7813,214.3594 L949.6094,209.2813 Z M948.125,207.0469 L951.1094,207.0469 L954.4688,219.4375 L952.0156,219.4375 L951.25,216.375 L947.9688,216.375 L947.2188,219.4375 L944.7813,219.4375 L948.125,207.0469 Z " fill="#000000"/>
        <text fill="#000000" font-family="sans-serif" font-size="14" font-style="italic" lengthAdjust="spacing" textLength="81" x="963.5" y="218.7842">Abstract_dri</text>
        <line style="stroke:#A80036;stroke-width:1.5;" x1="935.5" x2="1046.5" y1="229.9375" y2="229.9375"/>
        <line style="stroke:#A80036;stroke-width:1.5;" x1="935.5" x2="1046.5" y1="237.9375" y2="237.9375"/>
        <!--MD5=[f307d911908a82f7a331f28a3f5ab576]
class io.github.xjrga.foods.Abstract_food-->
        <rect codeLine="18" fill="#FEFECE" filter="url(#f1rb62m5v6k67k)" height="48" id="io.github.xjrga.foods.Abstract_food" style="stroke:#A80036;stroke-width:1.5;" width="127" x="298.5" y="197.9375"/>
        <ellipse cx="313.5" cy="213.9375" fill="#A9DCDF" rx="11" ry="11" style="stroke:#A80036;stroke-width:1.0;"/>
        <path d="M313.6094,209.2813 L312.4531,214.3594 L314.7813,214.3594 L313.6094,209.2813 Z M312.125,207.0469 L315.1094,207.0469 L318.4688,219.4375 L316.0156,219.4375 L315.25,216.375 L311.9688,216.375 L311.2188,219.4375 L308.7813,219.4375 L312.125,207.0469 Z " fill="#000000"/>
        <text fill="#000000" font-family="sans-serif" font-size="14" font-style="italic" lengthAdjust="spacing" textLength="95" x="327.5" y="218.7842">Abstract_food</text>
        <line style="stroke:#A80036;stroke-width:1.5;" x1="299.5" x2="424.5" y1="229.9375" y2="229.9375"/>
        <line style="stroke:#A80036;stroke-width:1.5;" x1="299.5" x2="424.5" y1="237.9375" y2="237.9375"/>
        <!--MD5=[33a441b984ce4045023de1e810d8d450]
class io.github.xjrga.foods.Food_data-->
        <rect codeLine="20" fill="#FEFECE" filter="url(#f1rb62m5v6k67k)" height="48" id="io.github.xjrga.foods.Food_data" style="stroke:#A80036;stroke-width:1.5;" width="104" x="380" y="413.9375"/>
        <ellipse cx="395" cy="429.9375" fill="#ADD1B2" rx="11" ry="11" style="stroke:#A80036;stroke-width:1.0;"/>
        <path d="M397.9688,435.5781 Q397.3906,435.875 396.75,436.0156 Q396.1094,436.1719 395.4063,436.1719 Q392.9063,436.1719 391.5781,434.5313 Q390.2656,432.875 390.2656,429.75 Q390.2656,426.625 391.5781,424.9688 Q392.9063,423.3125 395.4063,423.3125 Q396.1094,423.3125 396.75,423.4688 Q397.4063,423.625 397.9688,423.9219 L397.9688,426.6406 Q397.3438,426.0625 396.75,425.7969 Q396.1563,425.5156 395.5313,425.5156 Q394.1875,425.5156 393.5,426.5938 Q392.8125,427.6563 392.8125,429.75 Q392.8125,431.8438 393.5,432.9219 Q394.1875,433.9844 395.5313,433.9844 Q396.1563,433.9844 396.75,433.7188 Q397.3438,433.4375 397.9688,432.8594 L397.9688,435.5781 Z " fill="#000000"/>
        <text fill="#000000" font-family="sans-serif" font-size="14" lengthAdjust="spacing" textLength="72" x="409" y="434.7842">Food_data</text>
        <line style="stroke:#A80036;stroke-width:1.5;" x1="381" x2="483" y1="445.9375" y2="445.9375"/>
        <line style="stroke:#A80036;stroke-width:1.5;" x1="381" x2="483" y1="453.9375" y2="453.9375"/>
        <!--MD5=[455339278f2f3b334b02d8fc67d71eae]
class io.github.xjrga.foods.Mangos_raw-->
        <rect codeLine="21" fill="#FEFECE" filter="url(#f1rb62m5v6k67k)" height="48" id="io.github.xjrga.foods.Mangos_raw" style="stroke:#A80036;stroke-width:1.5;" width="118" x="212" y="305.9375"/>
        <ellipse cx="227" cy="321.9375" fill="#ADD1B2" rx="11" ry="11" style="stroke:#A80036;stroke-width:1.0;"/>
        <path d="M229.9688,327.5781 Q229.3906,327.875 228.75,328.0156 Q228.1094,328.1719 227.4063,328.1719 Q224.9063,328.1719 223.5781,326.5313 Q222.2656,324.875 222.2656,321.75 Q222.2656,318.625 223.5781,316.9688 Q224.9063,315.3125 227.4063,315.3125 Q228.1094,315.3125 228.75,315.4688 Q229.4063,315.625 229.9688,315.9219 L229.9688,318.6406 Q229.3438,318.0625 228.75,317.7969 Q228.1563,317.5156 227.5313,317.5156 Q226.1875,317.5156 225.5,318.5938 Q224.8125,319.6563 224.8125,321.75 Q224.8125,323.8438 225.5,324.9219 Q226.1875,325.9844 227.5313,325.9844 Q228.1563,325.9844 228.75,325.7188 Q229.3438,325.4375 229.9688,324.8594 L229.9688,327.5781 Z " fill="#000000"/>
        <text fill="#000000" font-family="sans-serif" font-size="14" lengthAdjust="spacing" textLength="86" x="241" y="326.7842">Mangos_raw</text>
        <line style="stroke:#A80036;stroke-width:1.5;" x1="213" x2="329" y1="337.9375" y2="337.9375"/>
        <line style="stroke:#A80036;stroke-width:1.5;" x1="213" x2="329" y1="345.9375" y2="345.9375"/>
        <!--MD5=[3e6de59cc75bb7c317ac8280ff0cb27e]
class io.github.xjrga.foods.Dri_daily_value-->
        <rect codeLine="22" fill="#FEFECE" filter="url(#f1rb62m5v6k67k)" height="48" id="io.github.xjrga.foods.Dri_daily_value" style="stroke:#A80036;stroke-width:1.5;" width="131" x="925.5" y="305.9375"/>
        <ellipse cx="940.5" cy="321.9375" fill="#ADD1B2" rx="11" ry="11" style="stroke:#A80036;stroke-width:1.0;"/>
        <path d="M943.4688,327.5781 Q942.8906,327.875 942.25,328.0156 Q941.6094,328.1719 940.9063,328.1719 Q938.4063,328.1719 937.0781,326.5313 Q935.7656,324.875 935.7656,321.75 Q935.7656,318.625 937.0781,316.9688 Q938.4063,315.3125 940.9063,315.3125 Q941.6094,315.3125 942.25,315.4688 Q942.9063,315.625 943.4688,315.9219 L943.4688,318.6406 Q942.8438,318.0625 942.25,317.7969 Q941.6563,317.5156 941.0313,317.5156 Q939.6875,317.5156 939,318.5938 Q938.3125,319.6563 938.3125,321.75 Q938.3125,323.8438 939,324.9219 Q939.6875,325.9844 941.0313,325.9844 Q941.6563,325.9844 942.25,325.7188 Q942.8438,325.4375 943.4688,324.8594 L943.4688,327.5781 Z " fill="#000000"/>
        <text fill="#000000" font-family="sans-serif" font-size="14" lengthAdjust="spacing" textLength="99" x="954.5" y="326.7842">Dri_daily_value</text>
        <line style="stroke:#A80036;stroke-width:1.5;" x1="926.5" x2="1055.5" y1="337.9375" y2="337.9375"/>
        <line style="stroke:#A80036;stroke-width:1.5;" x1="926.5" x2="1055.5" y1="345.9375" y2="345.9375"/>
        <!--MD5=[d5ecd3b52be4c333f7cd706321007f0d]
class io.github.xjrga.foods.Concrete_food-->
        <rect codeLine="23" fill="#FEFECE" filter="url(#f1rb62m5v6k67k)" height="48" id="io.github.xjrga.foods.Concrete_food" style="stroke:#A80036;stroke-width:1.5;" width="134" x="365" y="305.9375"/>
        <ellipse cx="380" cy="321.9375" fill="#ADD1B2" rx="11" ry="11" style="stroke:#A80036;stroke-width:1.0;"/>
        <path d="M382.9688,327.5781 Q382.3906,327.875 381.75,328.0156 Q381.1094,328.1719 380.4063,328.1719 Q377.9063,328.1719 376.5781,326.5313 Q375.2656,324.875 375.2656,321.75 Q375.2656,318.625 376.5781,316.9688 Q377.9063,315.3125 380.4063,315.3125 Q381.1094,315.3125 381.75,315.4688 Q382.4063,315.625 382.9688,315.9219 L382.9688,318.6406 Q382.3438,318.0625 381.75,317.7969 Q381.1563,317.5156 380.5313,317.5156 Q379.1875,317.5156 378.5,318.5938 Q377.8125,319.6563 377.8125,321.75 Q377.8125,323.8438 378.5,324.9219 Q379.1875,325.9844 380.5313,325.9844 Q381.1563,325.9844 381.75,325.7188 Q382.3438,325.4375 382.9688,324.8594 L382.9688,327.5781 Z " fill="#000000"/>
        <text fill="#000000" font-family="sans-serif" font-size="14" lengthAdjust="spacing" textLength="102" x="394" y="326.7842">Concrete_food</text>
        <line style="stroke:#A80036;stroke-width:1.5;" x1="366" x2="498" y1="337.9375" y2="337.9375"/>
        <line style="stroke:#A80036;stroke-width:1.5;" x1="366" x2="498" y1="345.9375" y2="345.9375"/>
        <!--MD5=[810f3ee04e7cb186e92b907d981bc880]
class io.github.xjrga.foods.Coefficient_food-->
        <rect fill="#FEFECE" filter="url(#f1rb62m5v6k67k)" height="48" id="io.github.xjrga.foods.Coefficient_food" style="stroke:#A80036;stroke-width:1.5;" width="143" x="1392.5" y="89.9375"/>
        <ellipse cx="1407.5" cy="105.9375" fill="#ADD1B2" rx="11" ry="11" style="stroke:#A80036;stroke-width:1.0;"/>
        <path d="M1410.4688,111.5781 Q1409.8906,111.875 1409.25,112.0156 Q1408.6094,112.1719 1407.9063,112.1719 Q1405.4063,112.1719 1404.0781,110.5313 Q1402.7656,108.875 1402.7656,105.75 Q1402.7656,102.625 1404.0781,100.9688 Q1405.4063,99.3125 1407.9063,99.3125 Q1408.6094,99.3125 1409.25,99.4688 Q1409.9063,99.625 1410.4688,99.9219 L1410.4688,102.6406 Q1409.8438,102.0625 1409.25,101.7969 Q1408.6563,101.5156 1408.0313,101.5156 Q1406.6875,101.5156 1406,102.5938 Q1405.3125,103.6563 1405.3125,105.75 Q1405.3125,107.8438 1406,108.9219 Q1406.6875,109.9844 1408.0313,109.9844 Q1408.6563,109.9844 1409.25,109.7188 Q1409.8438,109.4375 1410.4688,108.8594 L1410.4688,111.5781 Z " fill="#000000"/>
        <text fill="#000000" font-family="sans-serif" font-size="14" lengthAdjust="spacing" textLength="111" x="1421.5" y="110.7842">Coefficient_food</text>
        <line style="stroke:#A80036;stroke-width:1.5;" x1="1393.5" x2="1534.5" y1="121.9375" y2="121.9375"/>
        <line style="stroke:#A80036;stroke-width:1.5;" x1="1393.5" x2="1534.5" y1="129.9375" y2="129.9375"/>
        <!--MD5=[ba5044e77b68fa983ebd462853f0c1f9]
class io.github.xjrga.foods.Coefficient_nutrient-->
        <rect fill="#FEFECE" filter="url(#f1rb62m5v6k67k)" height="48" id="io.github.xjrga.foods.Coefficient_nutrient" style="stroke:#A80036;stroke-width:1.5;" width="166" x="1191" y="89.9375"/>
        <ellipse cx="1206" cy="105.9375" fill="#ADD1B2" rx="11" ry="11" style="stroke:#A80036;stroke-width:1.0;"/>
        <path d="M1208.9688,111.5781 Q1208.3906,111.875 1207.75,112.0156 Q1207.1094,112.1719 1206.4063,112.1719 Q1203.9063,112.1719 1202.5781,110.5313 Q1201.2656,108.875 1201.2656,105.75 Q1201.2656,102.625 1202.5781,100.9688 Q1203.9063,99.3125 1206.4063,99.3125 Q1207.1094,99.3125 1207.75,99.4688 Q1208.4063,99.625 1208.9688,99.9219 L1208.9688,102.6406 Q1208.3438,102.0625 1207.75,101.7969 Q1207.1563,101.5156 1206.5313,101.5156 Q1205.1875,101.5156 1204.5,102.5938 Q1203.8125,103.6563 1203.8125,105.75 Q1203.8125,107.8438 1204.5,108.9219 Q1205.1875,109.9844 1206.5313,109.9844 Q1207.1563,109.9844 1207.75,109.7188 Q1208.3438,109.4375 1208.9688,108.8594 L1208.9688,111.5781 Z " fill="#000000"/>
        <text fill="#000000" font-family="sans-serif" font-size="14" lengthAdjust="spacing" textLength="134" x="1220" y="110.7842">Coefficient_nutrient</text>
        <line style="stroke:#A80036;stroke-width:1.5;" x1="1192" x2="1356" y1="121.9375" y2="121.9375"/>
        <line style="stroke:#A80036;stroke-width:1.5;" x1="1192" x2="1356" y1="129.9375" y2="129.9375"/>
        <!--MD5=[cfd8bf6baee9ee721b051dcc4649d4f8]
class io.github.xjrga.foods.Food_sum-->
        <rect fill="#FEFECE" filter="url(#f1rb62m5v6k67k)" height="48" id="io.github.xjrga.foods.Food_sum" style="stroke:#A80036;stroke-width:1.5;" width="104" x="1670" y="89.9375"/>
        <ellipse cx="1685" cy="105.9375" fill="#ADD1B2" rx="11" ry="11" style="stroke:#A80036;stroke-width:1.0;"/>
        <path d="M1687.9688,111.5781 Q1687.3906,111.875 1686.75,112.0156 Q1686.1094,112.1719 1685.4063,112.1719 Q1682.9063,112.1719 1681.5781,110.5313 Q1680.2656,108.875 1680.2656,105.75 Q1680.2656,102.625 1681.5781,100.9688 Q1682.9063,99.3125 1685.4063,99.3125 Q1686.1094,99.3125 1686.75,99.4688 Q1687.4063,99.625 1687.9688,99.9219 L1687.9688,102.6406 Q1687.3438,102.0625 1686.75,101.7969 Q1686.1563,101.5156 1685.5313,101.5156 Q1684.1875,101.5156 1683.5,102.5938 Q1682.8125,103.6563 1682.8125,105.75 Q1682.8125,107.8438 1683.5,108.9219 Q1684.1875,109.9844 1685.5313,109.9844 Q1686.1563,109.9844 1686.75,109.7188 Q1687.3438,109.4375 1687.9688,108.8594 L1687.9688,111.5781 Z " fill="#000000"/>
        <text fill="#000000" font-family="sans-serif" font-size="14" lengthAdjust="spacing" textLength="72" x="1699" y="110.7842">Food_sum</text>
        <line style="stroke:#A80036;stroke-width:1.5;" x1="1671" x2="1773" y1="121.9375" y2="121.9375"/>
        <line style="stroke:#A80036;stroke-width:1.5;" x1="1671" x2="1773" y1="129.9375" y2="129.9375"/>
        <!--MD5=[0f5c089844886cc460363863c12f3f14]
class io.github.xjrga.foods.Food_multiply-->
        <rect fill="#FEFECE" filter="url(#f1rb62m5v6k67k)" height="48" id="io.github.xjrga.foods.Food_multiply" style="stroke:#A80036;stroke-width:1.5;" width="126" x="229" y="89.9375"/>
        <ellipse cx="244" cy="105.9375" fill="#ADD1B2" rx="11" ry="11" style="stroke:#A80036;stroke-width:1.0;"/>
        <path d="M246.9688,111.5781 Q246.3906,111.875 245.75,112.0156 Q245.1094,112.1719 244.4063,112.1719 Q241.9063,112.1719 240.5781,110.5313 Q239.2656,108.875 239.2656,105.75 Q239.2656,102.625 240.5781,100.9688 Q241.9063,99.3125 244.4063,99.3125 Q245.1094,99.3125 245.75,99.4688 Q246.4063,99.625 246.9688,99.9219 L246.9688,102.6406 Q246.3438,102.0625 245.75,101.7969 Q245.1563,101.5156 244.5313,101.5156 Q243.1875,101.5156 242.5,102.5938 Q241.8125,103.6563 241.8125,105.75 Q241.8125,107.8438 242.5,108.9219 Q243.1875,109.9844 244.5313,109.9844 Q245.1563,109.9844 245.75,109.7188 Q246.3438,109.4375 246.9688,108.8594 L246.9688,111.5781 Z " fill="#000000"/>
        <text fill="#000000" font-family="sans-serif" font-size="14" lengthAdjust="spacing" textLength="94" x="258" y="110.7842">Food_multiply</text>
        <line style="stroke:#A80036;stroke-width:1.5;" x1="230" x2="354" y1="121.9375" y2="121.9375"/>
        <line style="stroke:#A80036;stroke-width:1.5;" x1="230" x2="354" y1="129.9375" y2="129.9375"/>
        <!--MD5=[3d09552a1e5e53c15c8ae4d52d183b26]
class io.github.xjrga.foods.Chef-->
        <rect fill="#FEFECE" filter="url(#f1rb62m5v6k67k)" height="48" id="io.github.xjrga.foods.Chef" style="stroke:#A80036;stroke-width:1.5;" width="64" x="1571" y="89.9375"/>
        <ellipse cx="1586" cy="105.9375" fill="#ADD1B2" rx="11" ry="11" style="stroke:#A80036;stroke-width:1.0;"/>
        <path d="M1588.9688,111.5781 Q1588.3906,111.875 1587.75,112.0156 Q1587.1094,112.1719 1586.4063,112.1719 Q1583.9063,112.1719 1582.5781,110.5313 Q1581.2656,108.875 1581.2656,105.75 Q1581.2656,102.625 1582.5781,100.9688 Q1583.9063,99.3125 1586.4063,99.3125 Q1587.1094,99.3125 1587.75,99.4688 Q1588.4063,99.625 1588.9688,99.9219 L1588.9688,102.6406 Q1588.3438,102.0625 1587.75,101.7969 Q1587.1563,101.5156 1586.5313,101.5156 Q1585.1875,101.5156 1584.5,102.5938 Q1583.8125,103.6563 1583.8125,105.75 Q1583.8125,107.8438 1584.5,108.9219 Q1585.1875,109.9844 1586.5313,109.9844 Q1587.1563,109.9844 1587.75,109.7188 Q1588.3438,109.4375 1588.9688,108.8594 L1588.9688,111.5781 Z " fill="#000000"/>
        <text fill="#000000" font-family="sans-serif" font-size="14" lengthAdjust="spacing" textLength="32" x="1600" y="110.7842">Chef</text>
        <line style="stroke:#A80036;stroke-width:1.5;" x1="1572" x2="1634" y1="121.9375" y2="121.9375"/>
        <line style="stroke:#A80036;stroke-width:1.5;" x1="1572" x2="1634" y1="129.9375" y2="129.9375"/>
        <!--MD5=[7f9d8db988477fd5664c5505defc7976]
reverse link io.github.xjrga.foods.Interface_dri_get to io.github.xjrga.foods.Abstract_dri-->
        <path d="M1049.18,153.1675 C1036.42,168.0375 1022.2,184.5875 1011.02,197.6175 " fill="none" id="io.github.xjrga.foods.Interface_dri_get-backto-io.github.xjrga.foods.Abstract_dri" style="stroke:#A80036;stroke-width:1.0;stroke-dasharray:7.0,7.0;"/>
        <polygon fill="none" points="1043.92,148.5575,1062.25,137.9375,1054.54,157.6775,1043.92,148.5575" style="stroke:#A80036;stroke-width:1.0;"/>
        <!--MD5=[9572bc908fcb3e64447121bf30516fc9]
reverse link io.github.xjrga.foods.Interface_dri_set to io.github.xjrga.foods.Abstract_dri-->
        <path d="M933.86,153.6375 C946.38,168.3875 960.26,184.7275 971.2,197.6175 " fill="none" id="io.github.xjrga.foods.Interface_dri_set-backto-io.github.xjrga.foods.Abstract_dri" style="stroke:#A80036;stroke-width:1.0;stroke-dasharray:7.0,7.0;"/>
        <polygon fill="none" points="928.14,157.7175,920.53,137.9375,938.81,148.6575,928.14,157.7175" style="stroke:#A80036;stroke-width:1.0;"/>
        <!--MD5=[13cf52e4d333efba6eac2f2465580aee]
reverse link io.github.xjrga.foods.Interface_food_get to io.github.xjrga.foods.Abstract_food-->
        <path d="M185.43,145.7675 C224.46,162.3875 271.81,182.5375 307.65,197.7975 " fill="none" id="io.github.xjrga.foods.Interface_food_get-backto-io.github.xjrga.foods.Abstract_food" style="stroke:#A80036;stroke-width:1.0;stroke-dasharray:7.0,7.0;"/>
        <polygon fill="none" points="182.69,152.2075,167.03,137.9375,188.17,139.3275,182.69,152.2075" style="stroke:#A80036;stroke-width:1.0;"/>
        <!--MD5=[a4162b296a93467330b571c862669f31]
reverse link io.github.xjrga.foods.Interface_food_set to io.github.xjrga.foods.Abstract_food-->
        <path d="M618.37,143.7375 C557.11,162.1775 479.32,185.6075 425.58,201.7875 " fill="none" id="io.github.xjrga.foods.Interface_food_set-backto-io.github.xjrga.foods.Abstract_food" style="stroke:#A80036;stroke-width:1.0;stroke-dasharray:7.0,7.0;"/>
        <polygon fill="none" points="616.45,136.9975,637.62,137.9375,620.49,150.4075,616.45,136.9975" style="stroke:#A80036;stroke-width:1.0;"/>
        <!--MD5=[9b401869cf4106b889b982cf1d3bd778]
reverse link io.github.xjrga.foods.Interface_food_coefficient to io.github.xjrga.foods.Abstract_food-->
        <path d="M450.29,150.5775 C430.82,166.0875 408.56,183.8275 391.26,197.6175 " fill="none" id="io.github.xjrga.foods.Interface_food_coefficient-backto-io.github.xjrga.foods.Abstract_food" style="stroke:#A80036;stroke-width:1.0;stroke-dasharray:7.0,7.0;"/>
        <polygon fill="none" points="446.14,144.9275,466.14,137.9375,454.86,155.8775,446.14,144.9275" style="stroke:#A80036;stroke-width:1.0;"/>
        <!--MD5=[e26aacbd427d880df350f7217eb4c445]
reverse link io.github.xjrga.foods.Interface_food_get to io.github.xjrga.foods.Food_data-->
        <path d="M116.32,158.0675 C122.65,211.0475 140.99,300.4575 194,353.9375 C244.06,404.4375 326.46,424.2675 379.98,432.0175 " fill="none" id="io.github.xjrga.foods.Interface_food_get-backto-io.github.xjrga.foods.Food_data" style="stroke:#A80036;stroke-width:1.0;stroke-dasharray:7.0,7.0;"/>
        <polygon fill="none" points="109.35,158.7175,114.3,138.1175,123.28,157.3175,109.35,158.7175" style="stroke:#A80036;stroke-width:1.0;"/>
        <!--MD5=[d5a92a2c1710158653f5953942117088]
reverse link io.github.xjrga.foods.Interface_food_set to io.github.xjrga.foods.Food_data-->
        <path d="M683.59,154.0175 C645.67,202.1875 578.24,285.9975 516,353.9375 C496.89,374.7975 473.97,397.2875 456.91,413.5875 " fill="none" id="io.github.xjrga.foods.Interface_food_set-backto-io.github.xjrga.foods.Food_data" style="stroke:#A80036;stroke-width:1.0;stroke-dasharray:7.0,7.0;"/>
        <polygon fill="none" points="678.32,149.3975,696.17,137.9775,689.34,158.0375,678.32,149.3975" style="stroke:#A80036;stroke-width:1.0;"/>
        <!--MD5=[3bf87c610b5a35cb556201cdc58ee3a8]
reverse link io.github.xjrga.foods.Abstract_food to io.github.xjrga.foods.Mangos_raw-->
        <path d="M329.18,261.1675 C316.42,276.0375 302.2,292.5875 291.02,305.6175 " fill="none" id="io.github.xjrga.foods.Abstract_food-backto-io.github.xjrga.foods.Mangos_raw" style="stroke:#A80036;stroke-width:1.0;"/>
        <polygon fill="none" points="323.92,256.5575,342.25,245.9375,334.54,265.6775,323.92,256.5575" style="stroke:#A80036;stroke-width:1.0;"/>
        <!--MD5=[d3295d7adad4a9700e1ccf3d24559079]
reverse link io.github.xjrga.foods.Abstract_dri to io.github.xjrga.foods.Dri_daily_value-->
        <path d="M991,265.9575 C991,279.5175 991,293.9775 991,305.6175 " fill="none" id="io.github.xjrga.foods.Abstract_dri-backto-io.github.xjrga.foods.Dri_daily_value" style="stroke:#A80036;stroke-width:1.0;"/>
        <polygon fill="none" points="984,265.9375,991,245.9375,998,265.9375,984,265.9375" style="stroke:#A80036;stroke-width:1.0;"/>
        <!--MD5=[f121bbb4bb124e4e86d99399064ec5e2]
reverse link io.github.xjrga.foods.Abstract_food to io.github.xjrga.foods.Concrete_food-->
        <path d="M388.5,263.0675 C397.99,277.4375 408.36,293.1475 416.6,305.6175 " fill="none" id="io.github.xjrga.foods.Abstract_food-backto-io.github.xjrga.foods.Concrete_food" style="stroke:#A80036;stroke-width:1.0;"/>
        <polygon fill="none" points="382.37,266.4875,377.19,245.9375,394.05,258.7675,382.37,266.4875" style="stroke:#A80036;stroke-width:1.0;"/>
        <!--MD5=[4fd545b23eecfc75b9fdc29940deb93d]
link io.github.xjrga.foods.Coefficient_food to java.util.ArrayList-->
        <path codeLine="24" d="M1535.65,134.6475 C1541.5,135.8875 1547.33,137.0075 1553,137.9375 C1657.22,154.9975 1688.24,126.6975 1790,154.9375 C1821.8,163.7575 1854.93,180.7175 1879.79,195.2375 " fill="none" id="io.github.xjrga.foods.Coefficient_food-to-java.util.ArrayList" style="stroke:#A80036;stroke-width:1.0;stroke-dasharray:7.0,7.0;"/>
        <polygon fill="#A80036" points="1884.33,197.9175,1878.6193,189.8933,1880.0262,195.3724,1874.5471,196.7794,1884.33,197.9175" style="stroke:#A80036;stroke-width:1.0;"/>
        <!--MD5=[7145abf6474c9c1b0ebc136df250e5e2]
link io.github.xjrga.foods.Coefficient_nutrient to java.util.ArrayList-->
        <path codeLine="25" d="M1357.01,135.1075 C1363.07,136.1875 1369.12,137.1575 1375,137.9375 C1466.49,150.1275 1700.69,131.6275 1790,154.9375 C1822.16,163.3375 1855.54,180.4875 1880.42,195.1975 " fill="none" id="io.github.xjrga.foods.Coefficient_nutrient-to-java.util.ArrayList" style="stroke:#A80036;stroke-width:1.0;stroke-dasharray:7.0,7.0;"/>
        <polygon fill="#A80036" points="1884.96,197.9175,1879.3005,189.8571,1880.6725,195.345,1875.1846,196.717,1884.96,197.9175" style="stroke:#A80036;stroke-width:1.0;"/>
        <!--MD5=[3f8821c10b35025527f7fe34c763ce46]
link io.github.xjrga.foods.Concrete_food to io.github.xjrga.foods.Food_data-->
        <path codeLine="26" d="M432,353.9375 C432,369.9375 432,391.3875 432,408.4675 " fill="none" id="io.github.xjrga.foods.Concrete_food-to-io.github.xjrga.foods.Food_data" style="stroke:#A80036;stroke-width:1.0;stroke-dasharray:7.0,7.0;"/>
        <polygon fill="#A80036" points="432,413.6175,436,404.6175,432,408.6175,428,404.6175,432,413.6175" style="stroke:#A80036;stroke-width:1.0;"/>
        <!--MD5=[0921dac297885c3bb88fd688fe23accb]
link io.github.xjrga.foods.Food_sum to java.util.ArrayList-->
        <path codeLine="27" d="M1764.96,137.9375 C1796.51,154.8275 1839.37,177.7775 1872.04,195.2575 " fill="none" id="io.github.xjrga.foods.Food_sum-to-java.util.ArrayList" style="stroke:#A80036;stroke-width:1.0;stroke-dasharray:7.0,7.0;"/>
        <polygon fill="#A80036" points="1876.78,197.7975,1870.7356,190.0216,1872.3726,195.4364,1866.9578,197.0734,1876.78,197.7975" style="stroke:#A80036;stroke-width:1.0;"/>
        <!--MD5=[87a4b2d1f4ee27d94615620056c82701]
link io.github.xjrga.foods.Food_multiply to io.github.xjrga.foods.Abstract_food-->
        <path codeLine="28" d="M307.19,137.9375 C317.94,154.2175 332.41,176.1275 343.78,193.3475 " fill="none" id="io.github.xjrga.foods.Food_multiply-to-io.github.xjrga.foods.Abstract_food" style="stroke:#A80036;stroke-width:1.0;stroke-dasharray:7.0,7.0;"/>
        <polygon fill="#A80036" points="346.6,197.6175,344.9744,187.9037,343.843,193.4463,338.3004,192.3149,346.6,197.6175" style="stroke:#A80036;stroke-width:1.0;"/>
        <!--MD5=[e32aab7d78ce40d5455ff19cb298cf08]
reverse link io.github.xjrga.foods.Chef to java.util.ArrayList-->
        <path codeLine="29" d="M1647.45,136.2075 C1649.31,136.8375 1651.16,137.4175 1653,137.9375 C1712.01,154.7375 1731.32,137.0075 1790,154.9375 C1823.04,165.0375 1857.81,183.1275 1883.06,197.8175 " fill="none" id="io.github.xjrga.foods.Chef-backto-java.util.ArrayList" style="stroke:#A80036;stroke-width:1.0;stroke-dasharray:7.0,7.0;"/>
        <polygon fill="#FFFFFF" points="1635.26,131.5175,1639.4214,137.4067,1646.4581,135.8306,1642.2967,129.9413,1635.26,131.5175" style="stroke:#A80036;stroke-width:1.0;"/>
        <!--MD5=[539c5d104a9aa29c2e525b64047b442a]
@startuml
title Simple Uml Diagram For Foods Library (Not all relationships shown)
<style>
title {
  HorizontalAlignment center
  FontSize 24
}
</style>
class java.util.ArrayList<Abstract_food>
interface io.github.xjrga.foods.Interface_dri_get
interface io.github.xjrga.foods.Interface_dri_set
interface io.github.xjrga.foods.Interface_food_get
interface io.github.xjrga.foods.Interface_food_set
interface io.github.xjrga.foods.Interface_food_coefficient
abstract class io.github.xjrga.foods.Abstract_dri implements io.github.xjrga.foods.Interface_dri_get
abstract class io.github.xjrga.foods.Abstract_dri implements io.github.xjrga.foods.Interface_dri_set
abstract class io.github.xjrga.foods.Abstract_food implements io.github.xjrga.foods.Interface_food_get
abstract class io.github.xjrga.foods.Abstract_food implements io.github.xjrga.foods.Interface_food_set
abstract class io.github.xjrga.foods.Abstract_food implements io.github.xjrga.foods.Interface_food_coefficient
class io.github.xjrga.foods.Food_data implements io.github.xjrga.foods.Interface_food_get
class io.github.xjrga.foods.Food_data implements io.github.xjrga.foods.Interface_food_set
class io.github.xjrga.foods.Mangos_raw extends io.github.xjrga.foods.Abstract_food
class io.github.xjrga.foods.Dri_daily_value extends io.github.xjrga.foods.Abstract_dri
class io.github.xjrga.foods.Concrete_food extends io.github.xjrga.foods.Abstract_food
io.github.xjrga.foods.Coefficient_food ..> java.util.ArrayList
io.github.xjrga.foods.Coefficient_nutrient ..> java.util.ArrayList
io.github.xjrga.foods.Concrete_food ..> io.github.xjrga.foods.Food_data
io.github.xjrga.foods.Food_sum ..> java.util.ArrayList
io.github.xjrga.foods.Food_multiply ..> io.github.xjrga.foods.Abstract_food
io.github.xjrga.foods.Chef o.. java.util.ArrayList
@enduml

PlantUML version 1.2021.3(Mon Mar 22 11:53:19 CDT 2021)
(GPL source distribution)
Java Runtime: OpenJDK Runtime Environment
JVM: OpenJDK 64-Bit Server VM
Default Encoding: UTF-8
Language: en
Country: US
-->
    </g>
</svg>
