<?xml version="1.0" encoding="UTF-8"?><svg xmlns="http://www.w3.org/2000/svg" xmlns:xlink="http://www.w3.org/1999/xlink" contentScriptType="application/ecmascript" contentStyleType="text/css" height="376px" preserveAspectRatio="none" style="width:1512px;height:376px;" version="1.1" viewBox="0 0 1512 376" width="1512px" zoomAndPan="magnify">
    <defs>
        <filter height="300%" id="f1iuk36d9wfezw" width="300%" x="-1" y="-1">
            <feGaussianBlur result="blurOut" stdDeviation="2.0"/>
            <feColorMatrix in="blurOut" result="blurOut2" type="matrix" values="0 0 0 0 0 0 0 0 0 0 0 0 0 0 0 0 0 0 .4 0"/>
            <feOffset dx="4.0" dy="4.0" in="blurOut2" result="blurOut3"/>
            <feBlend in="SourceGraphic" in2="blurOut3" mode="normal"/>
        </filter>
    </defs>
    <g>
        <rect fill="none" height="37.9375" style="stroke:none;stroke-width:1.0;" width="919" x="289.5" y="5"/>
        <text fill="#000000" font-family="sans-serif" font-size="24" font-weight="bold" lengthAdjust="spacing" textLength="909" x="294.5" y="32.2773">Simple Uml Diagram For Foods Library (Not all relationships shown)</text>
        <!--MD5=[7db3c59d38ae5b37b484eb2df9368145]
cluster java.util-->
        <polygon fill="#FFFFFF" filter="url(#f1iuk36d9wfezw)" points="1279,270.9375,1345,270.9375,1352,293.2344,1495,293.2344,1495,369.9375,1279,369.9375,1279,270.9375" style="stroke:#000000;stroke-width:2.0;"/>
        <line style="stroke:#000000;stroke-width:2.0;" x1="1279" x2="1352" y1="293.2344" y2="293.2344"/>
        <text fill="#000000" font-family="sans-serif" font-size="14" font-weight="bold" lengthAdjust="spacing" textLength="60" x="1283" y="285.9326">java.util</text>
        <!--MD5=[1f10c24ee3bcbe65d3f72ed88b4c20d3]
cluster io.github.xjrga.foods-->
        <polygon fill="#FFFFFF" filter="url(#f1iuk36d9wfezw)" points="16,54.9375,185,54.9375,192,77.2344,1255,77.2344,1255,369.9375,16,369.9375,16,54.9375" style="stroke:#000000;stroke-width:2.0;"/>
        <line style="stroke:#000000;stroke-width:2.0;" x1="16" x2="192" y1="77.2344" y2="77.2344"/>
        <text fill="#000000" font-family="sans-serif" font-size="14" font-weight="bold" lengthAdjust="spacing" textLength="163" x="20" y="69.9326">io.github.xjrga.foods</text>
        <!--MD5=[8479184e23c2bec09445fccfd361f5d2]
class java.util.ArrayList-->
        <rect codeLine="8" fill="#FEFECE" filter="url(#f1iuk36d9wfezw)" height="48" id="java.util.ArrayList" style="stroke:#A80036;stroke-width:1.5;" width="184" x="1295" y="305.9375"/>
        <ellipse cx="1310" cy="321.9375" fill="#ADD1B2" rx="11" ry="11" style="stroke:#A80036;stroke-width:1.0;"/>
        <path d="M1312.9688,327.5781 Q1312.3906,327.875 1311.75,328.0156 Q1311.1094,328.1719 1310.4063,328.1719 Q1307.9063,328.1719 1306.5781,326.5313 Q1305.2656,324.875 1305.2656,321.75 Q1305.2656,318.625 1306.5781,316.9688 Q1307.9063,315.3125 1310.4063,315.3125 Q1311.1094,315.3125 1311.75,315.4688 Q1312.4063,315.625 1312.9688,315.9219 L1312.9688,318.6406 Q1312.3438,318.0625 1311.75,317.7969 Q1311.1563,317.5156 1310.5313,317.5156 Q1309.1875,317.5156 1308.5,318.5938 Q1307.8125,319.6563 1307.8125,321.75 Q1307.8125,323.8438 1308.5,324.9219 Q1309.1875,325.9844 1310.5313,325.9844 Q1311.1563,325.9844 1311.75,325.7188 Q1312.3438,325.4375 1312.9688,324.8594 L1312.9688,327.5781 Z " fill="#000000"/>
        <text fill="#000000" font-family="sans-serif" font-size="14" lengthAdjust="spacing" textLength="57" x="1324" y="326.7842">ArrayList</text>
        <rect fill="#FFFFFF" height="15.9688" style="stroke:#000000;stroke-width:1.0;stroke-dasharray:2.0,2.0;" width="93" x="1389" y="302.9375"/>
        <text fill="#000000" font-family="sans-serif" font-size="12" font-style="italic" lengthAdjust="spacing" textLength="91" x="1390" y="315.0762">Interface_food</text>
        <line style="stroke:#A80036;stroke-width:1.5;" x1="1296" x2="1478" y1="337.9375" y2="337.9375"/>
        <line style="stroke:#A80036;stroke-width:1.5;" x1="1296" x2="1478" y1="345.9375" y2="345.9375"/>
        <!--MD5=[7dacb45e58122a4b1f27556785e5ee9a]
class io.github.xjrga.foods.Interface_dri-->
        <rect codeLine="9" fill="#FEFECE" filter="url(#f1iuk36d9wfezw)" height="48" id="io.github.xjrga.foods.Interface_dri" style="stroke:#A80036;stroke-width:1.5;" width="117" x="643.5" y="89.9375"/>
        <ellipse cx="658.5" cy="105.9375" fill="#B4A7E5" rx="11" ry="11" style="stroke:#A80036;stroke-width:1.0;"/>
        <path d="M654.4219,101.7031 L654.4219,99.5469 L661.8125,99.5469 L661.8125,101.7031 L659.3438,101.7031 L659.3438,109.7813 L661.8125,109.7813 L661.8125,111.9375 L654.4219,111.9375 L654.4219,109.7813 L656.8906,109.7813 L656.8906,101.7031 L654.4219,101.7031 Z " fill="#000000"/>
        <text fill="#000000" font-family="sans-serif" font-size="14" font-style="italic" lengthAdjust="spacing" textLength="85" x="672.5" y="110.7842">Interface_dri</text>
        <line style="stroke:#A80036;stroke-width:1.5;" x1="644.5" x2="759.5" y1="121.9375" y2="121.9375"/>
        <line style="stroke:#A80036;stroke-width:1.5;" x1="644.5" x2="759.5" y1="129.9375" y2="129.9375"/>
        <!--MD5=[d54a54327cf512710e452a1dcf5c7618]
class io.github.xjrga.foods.Interface_dri_mutable-->
        <rect codeLine="10" fill="#FEFECE" filter="url(#f1iuk36d9wfezw)" height="48" id="io.github.xjrga.foods.Interface_dri_mutable" style="stroke:#A80036;stroke-width:1.5;" width="180" x="428" y="89.9375"/>
        <ellipse cx="443" cy="105.9375" fill="#B4A7E5" rx="11" ry="11" style="stroke:#A80036;stroke-width:1.0;"/>
        <path d="M438.9219,101.7031 L438.9219,99.5469 L446.3125,99.5469 L446.3125,101.7031 L443.8438,101.7031 L443.8438,109.7813 L446.3125,109.7813 L446.3125,111.9375 L438.9219,111.9375 L438.9219,109.7813 L441.3906,109.7813 L441.3906,101.7031 L438.9219,101.7031 Z " fill="#000000"/>
        <text fill="#000000" font-family="sans-serif" font-size="14" font-style="italic" lengthAdjust="spacing" textLength="148" x="457" y="110.7842">Interface_dri_mutable</text>
        <line style="stroke:#A80036;stroke-width:1.5;" x1="429" x2="607" y1="121.9375" y2="121.9375"/>
        <line style="stroke:#A80036;stroke-width:1.5;" x1="429" x2="607" y1="129.9375" y2="129.9375"/>
        <!--MD5=[e84fb5d5dec21c385653d68123dacc72]
class io.github.xjrga.foods.Interface_food-->
        <rect codeLine="11" fill="#FEFECE" filter="url(#f1iuk36d9wfezw)" height="48" id="io.github.xjrga.foods.Interface_food" style="stroke:#A80036;stroke-width:1.5;" width="131" x="261.5" y="89.9375"/>
        <ellipse cx="276.5" cy="105.9375" fill="#B4A7E5" rx="11" ry="11" style="stroke:#A80036;stroke-width:1.0;"/>
        <path d="M272.4219,101.7031 L272.4219,99.5469 L279.8125,99.5469 L279.8125,101.7031 L277.3438,101.7031 L277.3438,109.7813 L279.8125,109.7813 L279.8125,111.9375 L272.4219,111.9375 L272.4219,109.7813 L274.8906,109.7813 L274.8906,101.7031 L272.4219,101.7031 Z " fill="#000000"/>
        <text fill="#000000" font-family="sans-serif" font-size="14" font-style="italic" lengthAdjust="spacing" textLength="99" x="290.5" y="110.7842">Interface_food</text>
        <line style="stroke:#A80036;stroke-width:1.5;" x1="262.5" x2="391.5" y1="121.9375" y2="121.9375"/>
        <line style="stroke:#A80036;stroke-width:1.5;" x1="262.5" x2="391.5" y1="129.9375" y2="129.9375"/>
        <!--MD5=[46a6121b60701f0336e995874f643495]
class io.github.xjrga.foods.Interface_food_mutable-->
        <rect codeLine="12" fill="#FEFECE" filter="url(#f1iuk36d9wfezw)" height="48" id="io.github.xjrga.foods.Interface_food_mutable" style="stroke:#A80036;stroke-width:1.5;" width="194" x="32" y="89.9375"/>
        <ellipse cx="47" cy="105.9375" fill="#B4A7E5" rx="11" ry="11" style="stroke:#A80036;stroke-width:1.0;"/>
        <path d="M42.9219,101.7031 L42.9219,99.5469 L50.3125,99.5469 L50.3125,101.7031 L47.8438,101.7031 L47.8438,109.7813 L50.3125,109.7813 L50.3125,111.9375 L42.9219,111.9375 L42.9219,109.7813 L45.3906,109.7813 L45.3906,101.7031 L42.9219,101.7031 Z " fill="#000000"/>
        <text fill="#000000" font-family="sans-serif" font-size="14" font-style="italic" lengthAdjust="spacing" textLength="162" x="61" y="110.7842">Interface_food_mutable</text>
        <line style="stroke:#A80036;stroke-width:1.5;" x1="33" x2="225" y1="121.9375" y2="121.9375"/>
        <line style="stroke:#A80036;stroke-width:1.5;" x1="33" x2="225" y1="129.9375" y2="129.9375"/>
        <!--MD5=[a9e18a06d5e58b84d8df81e0bcfef025]
class io.github.xjrga.foods.Abstract_dri-->
        <rect codeLine="14" fill="#FEFECE" filter="url(#f1iuk36d9wfezw)" height="48" id="io.github.xjrga.foods.Abstract_dri" style="stroke:#A80036;stroke-width:1.5;" width="113" x="636.5" y="197.9375"/>
        <ellipse cx="651.5" cy="213.9375" fill="#A9DCDF" rx="11" ry="11" style="stroke:#A80036;stroke-width:1.0;"/>
        <path d="M651.6094,209.2813 L650.4531,214.3594 L652.7813,214.3594 L651.6094,209.2813 Z M650.125,207.0469 L653.1094,207.0469 L656.4688,219.4375 L654.0156,219.4375 L653.25,216.375 L649.9688,216.375 L649.2188,219.4375 L646.7813,219.4375 L650.125,207.0469 Z " fill="#000000"/>
        <text fill="#000000" font-family="sans-serif" font-size="14" font-style="italic" lengthAdjust="spacing" textLength="81" x="665.5" y="218.7842">Abstract_dri</text>
        <line style="stroke:#A80036;stroke-width:1.5;" x1="637.5" x2="748.5" y1="229.9375" y2="229.9375"/>
        <line style="stroke:#A80036;stroke-width:1.5;" x1="637.5" x2="748.5" y1="237.9375" y2="237.9375"/>
        <!--MD5=[f307d911908a82f7a331f28a3f5ab576]
class io.github.xjrga.foods.Abstract_food-->
        <rect codeLine="16" fill="#FEFECE" filter="url(#f1iuk36d9wfezw)" height="48" id="io.github.xjrga.foods.Abstract_food" style="stroke:#A80036;stroke-width:1.5;" width="127" x="80.5" y="197.9375"/>
        <ellipse cx="95.5" cy="213.9375" fill="#A9DCDF" rx="11" ry="11" style="stroke:#A80036;stroke-width:1.0;"/>
        <path d="M95.6094,209.2813 L94.4531,214.3594 L96.7813,214.3594 L95.6094,209.2813 Z M94.125,207.0469 L97.1094,207.0469 L100.4688,219.4375 L98.0156,219.4375 L97.25,216.375 L93.9688,216.375 L93.2188,219.4375 L90.7813,219.4375 L94.125,207.0469 Z " fill="#000000"/>
        <text fill="#000000" font-family="sans-serif" font-size="14" font-style="italic" lengthAdjust="spacing" textLength="95" x="109.5" y="218.7842">Abstract_food</text>
        <line style="stroke:#A80036;stroke-width:1.5;" x1="81.5" x2="206.5" y1="229.9375" y2="229.9375"/>
        <line style="stroke:#A80036;stroke-width:1.5;" x1="81.5" x2="206.5" y1="237.9375" y2="237.9375"/>
        <!--MD5=[0be62221c98dc9d463d100b352db8c1f]
class io.github.xjrga.foods.Food_multiplier-->
        <rect codeLine="17" fill="#FEFECE" filter="url(#f1iuk36d9wfezw)" height="48" id="io.github.xjrga.foods.Food_multiplier" style="stroke:#A80036;stroke-width:1.5;" width="136" x="259" y="197.9375"/>
        <ellipse cx="274" cy="213.9375" fill="#ADD1B2" rx="11" ry="11" style="stroke:#A80036;stroke-width:1.0;"/>
        <path d="M276.9688,219.5781 Q276.3906,219.875 275.75,220.0156 Q275.1094,220.1719 274.4063,220.1719 Q271.9063,220.1719 270.5781,218.5313 Q269.2656,216.875 269.2656,213.75 Q269.2656,210.625 270.5781,208.9688 Q271.9063,207.3125 274.4063,207.3125 Q275.1094,207.3125 275.75,207.4688 Q276.4063,207.625 276.9688,207.9219 L276.9688,210.6406 Q276.3438,210.0625 275.75,209.7969 Q275.1563,209.5156 274.5313,209.5156 Q273.1875,209.5156 272.5,210.5938 Q271.8125,211.6563 271.8125,213.75 Q271.8125,215.8438 272.5,216.9219 Q273.1875,217.9844 274.5313,217.9844 Q275.1563,217.9844 275.75,217.7188 Q276.3438,217.4375 276.9688,216.8594 L276.9688,219.5781 Z " fill="#000000"/>
        <text fill="#000000" font-family="sans-serif" font-size="14" lengthAdjust="spacing" textLength="104" x="288" y="218.7842">Food_multiplier</text>
        <line style="stroke:#A80036;stroke-width:1.5;" x1="260" x2="394" y1="229.9375" y2="229.9375"/>
        <line style="stroke:#A80036;stroke-width:1.5;" x1="260" x2="394" y1="237.9375" y2="237.9375"/>
        <!--MD5=[00902a87e02705cc65597b01a52f1d89]
class io.github.xjrga.foods.Food_summator-->
        <rect codeLine="18" fill="#FEFECE" filter="url(#f1iuk36d9wfezw)" height="48" id="io.github.xjrga.foods.Food_summator" style="stroke:#A80036;stroke-width:1.5;" width="144" x="448" y="197.9375"/>
        <ellipse cx="463" cy="213.9375" fill="#ADD1B2" rx="11" ry="11" style="stroke:#A80036;stroke-width:1.0;"/>
        <path d="M465.9688,219.5781 Q465.3906,219.875 464.75,220.0156 Q464.1094,220.1719 463.4063,220.1719 Q460.9063,220.1719 459.5781,218.5313 Q458.2656,216.875 458.2656,213.75 Q458.2656,210.625 459.5781,208.9688 Q460.9063,207.3125 463.4063,207.3125 Q464.1094,207.3125 464.75,207.4688 Q465.4063,207.625 465.9688,207.9219 L465.9688,210.6406 Q465.3438,210.0625 464.75,209.7969 Q464.1563,209.5156 463.5313,209.5156 Q462.1875,209.5156 461.5,210.5938 Q460.8125,211.6563 460.8125,213.75 Q460.8125,215.8438 461.5,216.9219 Q462.1875,217.9844 463.5313,217.9844 Q464.1563,217.9844 464.75,217.7188 Q465.3438,217.4375 465.9688,216.8594 L465.9688,219.5781 Z " fill="#000000"/>
        <text fill="#000000" font-family="sans-serif" font-size="14" lengthAdjust="spacing" textLength="112" x="477" y="218.7842">Food_summator</text>
        <line style="stroke:#A80036;stroke-width:1.5;" x1="449" x2="591" y1="229.9375" y2="229.9375"/>
        <line style="stroke:#A80036;stroke-width:1.5;" x1="449" x2="591" y1="237.9375" y2="237.9375"/>
        <!--MD5=[455339278f2f3b334b02d8fc67d71eae]
class io.github.xjrga.foods.Mangos_raw-->
        <rect codeLine="19" fill="#FEFECE" filter="url(#f1iuk36d9wfezw)" height="48" id="io.github.xjrga.foods.Mangos_raw" style="stroke:#A80036;stroke-width:1.5;" width="118" x="85" y="305.9375"/>
        <ellipse cx="100" cy="321.9375" fill="#ADD1B2" rx="11" ry="11" style="stroke:#A80036;stroke-width:1.0;"/>
        <path d="M102.9688,327.5781 Q102.3906,327.875 101.75,328.0156 Q101.1094,328.1719 100.4063,328.1719 Q97.9063,328.1719 96.5781,326.5313 Q95.2656,324.875 95.2656,321.75 Q95.2656,318.625 96.5781,316.9688 Q97.9063,315.3125 100.4063,315.3125 Q101.1094,315.3125 101.75,315.4688 Q102.4063,315.625 102.9688,315.9219 L102.9688,318.6406 Q102.3438,318.0625 101.75,317.7969 Q101.1563,317.5156 100.5313,317.5156 Q99.1875,317.5156 98.5,318.5938 Q97.8125,319.6563 97.8125,321.75 Q97.8125,323.8438 98.5,324.9219 Q99.1875,325.9844 100.5313,325.9844 Q101.1563,325.9844 101.75,325.7188 Q102.3438,325.4375 102.9688,324.8594 L102.9688,327.5781 Z " fill="#000000"/>
        <text fill="#000000" font-family="sans-serif" font-size="14" lengthAdjust="spacing" textLength="86" x="114" y="326.7842">Mangos_raw</text>
        <line style="stroke:#A80036;stroke-width:1.5;" x1="86" x2="202" y1="337.9375" y2="337.9375"/>
        <line style="stroke:#A80036;stroke-width:1.5;" x1="86" x2="202" y1="345.9375" y2="345.9375"/>
        <!--MD5=[3e6de59cc75bb7c317ac8280ff0cb27e]
class io.github.xjrga.foods.Dri_daily_value-->
        <rect codeLine="20" fill="#FEFECE" filter="url(#f1iuk36d9wfezw)" height="48" id="io.github.xjrga.foods.Dri_daily_value" style="stroke:#A80036;stroke-width:1.5;" width="131" x="627.5" y="305.9375"/>
        <ellipse cx="642.5" cy="321.9375" fill="#ADD1B2" rx="11" ry="11" style="stroke:#A80036;stroke-width:1.0;"/>
        <path d="M645.4688,327.5781 Q644.8906,327.875 644.25,328.0156 Q643.6094,328.1719 642.9063,328.1719 Q640.4063,328.1719 639.0781,326.5313 Q637.7656,324.875 637.7656,321.75 Q637.7656,318.625 639.0781,316.9688 Q640.4063,315.3125 642.9063,315.3125 Q643.6094,315.3125 644.25,315.4688 Q644.9063,315.625 645.4688,315.9219 L645.4688,318.6406 Q644.8438,318.0625 644.25,317.7969 Q643.6563,317.5156 643.0313,317.5156 Q641.6875,317.5156 641,318.5938 Q640.3125,319.6563 640.3125,321.75 Q640.3125,323.8438 641,324.9219 Q641.6875,325.9844 643.0313,325.9844 Q643.6563,325.9844 644.25,325.7188 Q644.8438,325.4375 645.4688,324.8594 L645.4688,327.5781 Z " fill="#000000"/>
        <text fill="#000000" font-family="sans-serif" font-size="14" lengthAdjust="spacing" textLength="99" x="656.5" y="326.7842">Dri_daily_value</text>
        <line style="stroke:#A80036;stroke-width:1.5;" x1="628.5" x2="757.5" y1="337.9375" y2="337.9375"/>
        <line style="stroke:#A80036;stroke-width:1.5;" x1="628.5" x2="757.5" y1="345.9375" y2="345.9375"/>
        <!--MD5=[810f3ee04e7cb186e92b907d981bc880]
class io.github.xjrga.foods.Coefficient_food-->
        <rect fill="#FEFECE" filter="url(#f1iuk36d9wfezw)" height="48" id="io.github.xjrga.foods.Coefficient_food" style="stroke:#A80036;stroke-width:1.5;" width="143" x="795.5" y="89.9375"/>
        <ellipse cx="810.5" cy="105.9375" fill="#ADD1B2" rx="11" ry="11" style="stroke:#A80036;stroke-width:1.0;"/>
        <path d="M813.4688,111.5781 Q812.8906,111.875 812.25,112.0156 Q811.6094,112.1719 810.9063,112.1719 Q808.4063,112.1719 807.0781,110.5313 Q805.7656,108.875 805.7656,105.75 Q805.7656,102.625 807.0781,100.9688 Q808.4063,99.3125 810.9063,99.3125 Q811.6094,99.3125 812.25,99.4688 Q812.9063,99.625 813.4688,99.9219 L813.4688,102.6406 Q812.8438,102.0625 812.25,101.7969 Q811.6563,101.5156 811.0313,101.5156 Q809.6875,101.5156 809,102.5938 Q808.3125,103.6563 808.3125,105.75 Q808.3125,107.8438 809,108.9219 Q809.6875,109.9844 811.0313,109.9844 Q811.6563,109.9844 812.25,109.7188 Q812.8438,109.4375 813.4688,108.8594 L813.4688,111.5781 Z " fill="#000000"/>
        <text fill="#000000" font-family="sans-serif" font-size="14" lengthAdjust="spacing" textLength="111" x="824.5" y="110.7842">Coefficient_food</text>
        <line style="stroke:#A80036;stroke-width:1.5;" x1="796.5" x2="937.5" y1="121.9375" y2="121.9375"/>
        <line style="stroke:#A80036;stroke-width:1.5;" x1="796.5" x2="937.5" y1="129.9375" y2="129.9375"/>
        <!--MD5=[ba5044e77b68fa983ebd462853f0c1f9]
class io.github.xjrga.foods.Coefficient_nutrient-->
        <rect fill="#FEFECE" filter="url(#f1iuk36d9wfezw)" height="48" id="io.github.xjrga.foods.Coefficient_nutrient" style="stroke:#A80036;stroke-width:1.5;" width="166" x="974" y="89.9375"/>
        <ellipse cx="989" cy="105.9375" fill="#ADD1B2" rx="11" ry="11" style="stroke:#A80036;stroke-width:1.0;"/>
        <path d="M991.9688,111.5781 Q991.3906,111.875 990.75,112.0156 Q990.1094,112.1719 989.4063,112.1719 Q986.9063,112.1719 985.5781,110.5313 Q984.2656,108.875 984.2656,105.75 Q984.2656,102.625 985.5781,100.9688 Q986.9063,99.3125 989.4063,99.3125 Q990.1094,99.3125 990.75,99.4688 Q991.4063,99.625 991.9688,99.9219 L991.9688,102.6406 Q991.3438,102.0625 990.75,101.7969 Q990.1563,101.5156 989.5313,101.5156 Q988.1875,101.5156 987.5,102.5938 Q986.8125,103.6563 986.8125,105.75 Q986.8125,107.8438 987.5,108.9219 Q988.1875,109.9844 989.5313,109.9844 Q990.1563,109.9844 990.75,109.7188 Q991.3438,109.4375 991.9688,108.8594 L991.9688,111.5781 Z " fill="#000000"/>
        <text fill="#000000" font-family="sans-serif" font-size="14" lengthAdjust="spacing" textLength="134" x="1003" y="110.7842">Coefficient_nutrient</text>
        <line style="stroke:#A80036;stroke-width:1.5;" x1="975" x2="1139" y1="121.9375" y2="121.9375"/>
        <line style="stroke:#A80036;stroke-width:1.5;" x1="975" x2="1139" y1="129.9375" y2="129.9375"/>
        <!--MD5=[3d09552a1e5e53c15c8ae4d52d183b26]
class io.github.xjrga.foods.Chef-->
        <rect fill="#FEFECE" filter="url(#f1iuk36d9wfezw)" height="48" id="io.github.xjrga.foods.Chef" style="stroke:#A80036;stroke-width:1.5;" width="64" x="1175" y="89.9375"/>
        <ellipse cx="1190" cy="105.9375" fill="#ADD1B2" rx="11" ry="11" style="stroke:#A80036;stroke-width:1.0;"/>
        <path d="M1192.9688,111.5781 Q1192.3906,111.875 1191.75,112.0156 Q1191.1094,112.1719 1190.4063,112.1719 Q1187.9063,112.1719 1186.5781,110.5313 Q1185.2656,108.875 1185.2656,105.75 Q1185.2656,102.625 1186.5781,100.9688 Q1187.9063,99.3125 1190.4063,99.3125 Q1191.1094,99.3125 1191.75,99.4688 Q1192.4063,99.625 1192.9688,99.9219 L1192.9688,102.6406 Q1192.3438,102.0625 1191.75,101.7969 Q1191.1563,101.5156 1190.5313,101.5156 Q1189.1875,101.5156 1188.5,102.5938 Q1187.8125,103.6563 1187.8125,105.75 Q1187.8125,107.8438 1188.5,108.9219 Q1189.1875,109.9844 1190.5313,109.9844 Q1191.1563,109.9844 1191.75,109.7188 Q1192.3438,109.4375 1192.9688,108.8594 L1192.9688,111.5781 Z " fill="#000000"/>
        <text fill="#000000" font-family="sans-serif" font-size="14" lengthAdjust="spacing" textLength="32" x="1204" y="110.7842">Chef</text>
        <line style="stroke:#A80036;stroke-width:1.5;" x1="1176" x2="1238" y1="121.9375" y2="121.9375"/>
        <line style="stroke:#A80036;stroke-width:1.5;" x1="1176" x2="1238" y1="129.9375" y2="129.9375"/>
        <!--MD5=[cbf202b8bcdf39dd5513dac5970d93c9]
reverse link io.github.xjrga.foods.Interface_dri to io.github.xjrga.foods.Abstract_dri-->
        <path d="M698.35,157.9575 C697.2,171.5175 695.97,185.9775 694.98,197.6175 " fill="none" id="io.github.xjrga.foods.Interface_dri-backto-io.github.xjrga.foods.Abstract_dri" style="stroke:#A80036;stroke-width:1.0;stroke-dasharray:7.0,7.0;"/>
        <polygon fill="none" points="691.38,157.2775,700.05,137.9375,705.33,158.4575,691.38,157.2775" style="stroke:#A80036;stroke-width:1.0;"/>
        <!--MD5=[6eb77c1f81e4f4d6a00714d6bd47ca21]
reverse link io.github.xjrga.foods.Interface_dri_mutable to io.github.xjrga.foods.Abstract_dri-->
        <path d="M573.44,148.5175 C599.94,164.5675 630.99,183.3775 654.8,197.7975 " fill="none" id="io.github.xjrga.foods.Interface_dri_mutable-backto-io.github.xjrga.foods.Abstract_dri" style="stroke:#A80036;stroke-width:1.0;stroke-dasharray:7.0,7.0;"/>
        <polygon fill="none" points="569.45,154.2875,555.97,137.9375,576.71,142.3075,569.45,154.2875" style="stroke:#A80036;stroke-width:1.0;"/>
        <!--MD5=[036acf7435f7f3da5dc7ba694e3b1fb7]
reverse link io.github.xjrga.foods.Interface_food to io.github.xjrga.foods.Abstract_food-->
        <path d="M269.82,148.0575 C241.94,164.2075 209.09,183.2375 183.95,197.7975 " fill="none" id="io.github.xjrga.foods.Interface_food-backto-io.github.xjrga.foods.Abstract_food" style="stroke:#A80036;stroke-width:1.0;stroke-dasharray:7.0,7.0;"/>
        <polygon fill="none" points="266.48,141.9075,287.29,137.9375,273.49,154.0175,266.48,141.9075" style="stroke:#A80036;stroke-width:1.0;"/>
        <!--MD5=[26af418298e445185cfbed53fa0e1267]
reverse link io.github.xjrga.foods.Interface_food_mutable to io.github.xjrga.foods.Abstract_food-->
        <path d="M135.09,157.9575 C137.01,171.5175 139.05,185.9775 140.7,197.6175 " fill="none" id="io.github.xjrga.foods.Interface_food_mutable-backto-io.github.xjrga.foods.Abstract_food" style="stroke:#A80036;stroke-width:1.0;stroke-dasharray:7.0,7.0;"/>
        <polygon fill="none" points="128.13,158.7175,132.25,137.9375,141.99,156.7575,128.13,158.7175" style="stroke:#A80036;stroke-width:1.0;"/>
        <!--MD5=[5264dfe4edd38a77d71e9ae22bc08aca]
reverse link io.github.xjrga.foods.Interface_food to io.github.xjrga.foods.Food_multiplier-->
        <path d="M314.45,157.9575 C313.9,171.5175 314.49,185.9775 316.23,197.6175 " fill="none" id="io.github.xjrga.foods.Interface_food-backto-io.github.xjrga.foods.Food_multiplier" style="stroke:#A80036;stroke-width:1.0;stroke-dasharray:7.0,7.0;"/>
        <polygon fill="none" points="307.49,157.2175,316.27,137.9375,321.43,158.4875,307.49,157.2175" style="stroke:#A80036;stroke-width:1.0;"/>
        <!--MD5=[5264dfe4edd38a77d71e9ae22bc08aca]
reverse link io.github.xjrga.foods.Interface_food to io.github.xjrga.foods.Food_multiplier-->
        <path codeLine="21" d="M339.08,143.0675 C341.18,160.0875 340.95,181.5375 338.41,197.6175 " fill="none" id="io.github.xjrga.foods.Interface_food-backto-io.github.xjrga.foods.Food_multiplier-1" style="stroke:#A80036;stroke-width:1.0;stroke-dasharray:7.0,7.0;"/>
        <polygon fill="#A80036" points="338.36,137.9375,335.6577,147.4084,339.0591,142.8884,343.5791,146.2898,338.36,137.9375" style="stroke:#A80036;stroke-width:1.0;"/>
        <!--MD5=[e9e418e95378078b1fdba427f0068c4b]
reverse link io.github.xjrga.foods.Interface_food to io.github.xjrga.foods.Food_summator-->
        <path d="M386.47,147.5975 C416.05,163.8475 451.1,183.0975 477.87,197.7975 " fill="none" id="io.github.xjrga.foods.Interface_food-backto-io.github.xjrga.foods.Food_summator" style="stroke:#A80036;stroke-width:1.0;stroke-dasharray:7.0,7.0;"/>
        <polygon fill="none" points="383.04,153.6975,368.88,137.9375,389.78,141.4275,383.04,153.6975" style="stroke:#A80036;stroke-width:1.0;"/>
        <!--MD5=[3bf87c610b5a35cb556201cdc58ee3a8]
reverse link io.github.xjrga.foods.Abstract_food to io.github.xjrga.foods.Mangos_raw-->
        <path d="M144,265.9575 C144,279.5175 144,293.9775 144,305.6175 " fill="none" id="io.github.xjrga.foods.Abstract_food-backto-io.github.xjrga.foods.Mangos_raw" style="stroke:#A80036;stroke-width:1.0;"/>
        <polygon fill="none" points="137,265.9375,144,245.9375,151,265.9375,137,265.9375" style="stroke:#A80036;stroke-width:1.0;"/>
        <!--MD5=[d3295d7adad4a9700e1ccf3d24559079]
reverse link io.github.xjrga.foods.Abstract_dri to io.github.xjrga.foods.Dri_daily_value-->
        <path d="M693,265.9575 C693,279.5175 693,293.9775 693,305.6175 " fill="none" id="io.github.xjrga.foods.Abstract_dri-backto-io.github.xjrga.foods.Dri_daily_value" style="stroke:#A80036;stroke-width:1.0;"/>
        <polygon fill="none" points="686,265.9375,693,245.9375,700,265.9375,686,265.9375" style="stroke:#A80036;stroke-width:1.0;"/>
        <!--MD5=[825b93faf4eff0ee7faed49d031ba867]
link io.github.xjrga.foods.Food_summator to java.util.ArrayList-->
        <path codeLine="22" d="M592.15,241.4675 C601.14,243.2575 610.25,244.8175 619,245.9375 C759.24,263.9175 1117.84,228.6175 1255,262.9375 C1287.89,271.1675 1322.06,288.5275 1347.38,303.3775 " fill="none" id="io.github.xjrga.foods.Food_summator-to-java.util.ArrayList" style="stroke:#A80036;stroke-width:1.0;stroke-dasharray:7.0,7.0;"/>
        <polygon fill="#A80036" points="1351.69,305.9275,1345.999,297.8893,1347.3925,303.3718,1341.91,304.7653,1351.69,305.9275" style="stroke:#A80036;stroke-width:1.0;"/>
        <!--MD5=[4fd545b23eecfc75b9fdc29940deb93d]
link io.github.xjrga.foods.Coefficient_food to java.util.ArrayList-->
        <path codeLine="23" d="M916.06,138.0375 C977.6,166.3575 1086.85,214.4475 1184,245.9375 C1214.87,255.9375 1224.51,251.8275 1255,262.9375 C1285.03,273.8775 1317.13,289.8275 1342.16,303.3075 " fill="none" id="io.github.xjrga.foods.Coefficient_food-to-java.util.ArrayList" style="stroke:#A80036;stroke-width:1.0;stroke-dasharray:7.0,7.0;"/>
        <polygon fill="#A80036" points="1346.75,305.7875,1340.7448,297.9813,1342.3545,303.4042,1336.9316,305.014,1346.75,305.7875" style="stroke:#A80036;stroke-width:1.0;"/>
        <!--MD5=[7145abf6474c9c1b0ebc136df250e5e2]
link io.github.xjrga.foods.Coefficient_nutrient to java.util.ArrayList-->
        <path codeLine="24" d="M1092.63,138.0475 C1154.64,178.2575 1281.98,260.8375 1346.95,302.9675 " fill="none" id="io.github.xjrga.foods.Coefficient_nutrient-to-java.util.ArrayList" style="stroke:#A80036;stroke-width:1.0;stroke-dasharray:7.0,7.0;"/>
        <polygon fill="#A80036" points="1351.52,305.9275,1346.152,297.6701,1347.3271,303.2036,1341.7937,304.3787,1351.52,305.9275" style="stroke:#A80036;stroke-width:1.0;"/>
        <!--MD5=[e32aab7d78ce40d5455ff19cb298cf08]
reverse link io.github.xjrga.foods.Chef to java.util.ArrayList-->
        <path codeLine="25" d="M1235.13,148.3775 C1271.92,192.1175 1335.45,267.6475 1367.42,305.6575 " fill="none" id="io.github.xjrga.foods.Chef-backto-java.util.ArrayList" style="stroke:#A80036;stroke-width:1.0;stroke-dasharray:7.0,7.0;"/>
        <polygon fill="#FFFFFF" points="1226.61,138.2475,1227.4095,145.4141,1234.3323,147.4326,1233.5329,140.2659,1226.61,138.2475" style="stroke:#A80036;stroke-width:1.0;"/>
        <!--MD5=[a8bc92e87a64faf260e673739ae32636]
@startuml
title Simple Uml Diagram For Foods Library (Not all relationships shown)
<style>
title {
  HorizontalAlignment center
  FontSize 24
}
</style>
class java.util.ArrayList<Interface_food>
interface io.github.xjrga.foods.Interface_dri
interface io.github.xjrga.foods.Interface_dri_mutable
interface io.github.xjrga.foods.Interface_food
interface io.github.xjrga.foods.Interface_food_mutable
abstract class io.github.xjrga.foods.Abstract_dri implements io.github.xjrga.foods.Interface_dri
abstract class io.github.xjrga.foods.Abstract_dri implements io.github.xjrga.foods.Interface_dri_mutable
abstract class io.github.xjrga.foods.Abstract_food implements io.github.xjrga.foods.Interface_food
abstract class io.github.xjrga.foods.Abstract_food implements io.github.xjrga.foods.Interface_food_mutable
class io.github.xjrga.foods.Food_multiplier implements io.github.xjrga.foods.Interface_food
class io.github.xjrga.foods.Food_summator implements io.github.xjrga.foods.Interface_food
class io.github.xjrga.foods.Mangos_raw extends io.github.xjrga.foods.Abstract_food
class io.github.xjrga.foods.Dri_daily_value extends io.github.xjrga.foods.Abstract_dri
io.github.xjrga.foods.Interface_food <.. io.github.xjrga.foods.Food_multiplier
io.github.xjrga.foods.Food_summator ..> java.util.ArrayList 
io.github.xjrga.foods.Coefficient_food ..> java.util.ArrayList 
io.github.xjrga.foods.Coefficient_nutrient ..> java.util.ArrayList
io.github.xjrga.foods.Chef o.. java.util.ArrayList
@enduml

PlantUML version 1.2021.3(Mon Mar 22 11:53:19 CDT 2021)
(GPL source distribution)
Java Runtime: OpenJDK Runtime Environment
JVM: OpenJDK 64-Bit Server VM
Default Encoding: UTF-8
Language: en
Country: US
-->
    </g>
</svg>
