<?xml version="1.0" encoding="UTF-8"?><svg xmlns="http://www.w3.org/2000/svg" xmlns:xlink="http://www.w3.org/1999/xlink" contentScriptType="application/ecmascript" contentStyleType="text/css" height="376px" preserveAspectRatio="none" style="width:1512px;height:376px;" version="1.1" viewBox="0 0 1512 376" width="1512px" zoomAndPan="magnify">
    <defs>
        <filter height="300%" id="f1tmjwss0sq7zl" width="300%" x="-1" y="-1">
            <feGaussianBlur result="blurOut" stdDeviation="2.0"/>
            <feColorMatrix in="blurOut" result="blurOut2" type="matrix" values="0 0 0 0 0 0 0 0 0 0 0 0 0 0 0 0 0 0 .4 0"/>
            <feOffset dx="4.0" dy="4.0" in="blurOut2" result="blurOut3"/>
            <feBlend in="SourceGraphic" in2="blurOut3" mode="normal"/>
        </filter>
    </defs>
    <g>
        <rect fill="none" height="37.9375" style="stroke:none;stroke-width:1.0;" width="919" x="289.5" y="5"/>
        <text fill="#000000" font-family="sans-serif" font-size="24" font-weight="bold" lengthAdjust="spacing" textLength="909" x="294.5" y="32.2773">Simple Uml Diagram For Foods Library (Not all relationships shown)</text>
        <!--MD5=[7db3c59d38ae5b37b484eb2df9368145]
cluster java.util-->
        <polygon fill="#FFFFFF" filter="url(#f1tmjwss0sq7zl)" points="1279,270.9375,1345,270.9375,1352,293.2344,1495,293.2344,1495,369.9375,1279,369.9375,1279,270.9375" style="stroke:#000000;stroke-width:2.0;"/>
        <line style="stroke:#000000;stroke-width:2.0;" x1="1279" x2="1352" y1="293.2344" y2="293.2344"/>
        <text fill="#000000" font-family="sans-serif" font-size="14" font-weight="bold" lengthAdjust="spacing" textLength="60" x="1283" y="285.9326">java.util</text>
        <!--MD5=[1f10c24ee3bcbe65d3f72ed88b4c20d3]
cluster io.github.xjrga.foods-->
        <polygon fill="#FFFFFF" filter="url(#f1tmjwss0sq7zl)" points="16,54.9375,185,54.9375,192,77.2344,1255,77.2344,1255,369.9375,16,369.9375,16,54.9375" style="stroke:#000000;stroke-width:2.0;"/>
        <line style="stroke:#000000;stroke-width:2.0;" x1="16" x2="192" y1="77.2344" y2="77.2344"/>
        <text fill="#000000" font-family="sans-serif" font-size="14" font-weight="bold" lengthAdjust="spacing" textLength="163" x="20" y="69.9326">io.github.xjrga.foods</text>
        <!--MD5=[8479184e23c2bec09445fccfd361f5d2]
class java.util.ArrayList-->
        <rect codeLine="8" fill="#FEFECE" filter="url(#f1tmjwss0sq7zl)" height="48" id="java.util.ArrayList" style="stroke:#A80036;stroke-width:1.5;" width="184" x="1295" y="305.9375"/>
        <ellipse cx="1310" cy="321.9375" fill="#ADD1B2" rx="11" ry="11" style="stroke:#A80036;stroke-width:1.0;"/>
        <path d="M1312.9688,327.5781 Q1312.3906,327.875 1311.75,328.0156 Q1311.1094,328.1719 1310.4063,328.1719 Q1307.9063,328.1719 1306.5781,326.5313 Q1305.2656,324.875 1305.2656,321.75 Q1305.2656,318.625 1306.5781,316.9688 Q1307.9063,315.3125 1310.4063,315.3125 Q1311.1094,315.3125 1311.75,315.4688 Q1312.4063,315.625 1312.9688,315.9219 L1312.9688,318.6406 Q1312.3438,318.0625 1311.75,317.7969 Q1311.1563,317.5156 1310.5313,317.5156 Q1309.1875,317.5156 1308.5,318.5938 Q1307.8125,319.6563 1307.8125,321.75 Q1307.8125,323.8438 1308.5,324.9219 Q1309.1875,325.9844 1310.5313,325.9844 Q1311.1563,325.9844 1311.75,325.7188 Q1312.3438,325.4375 1312.9688,324.8594 L1312.9688,327.5781 Z " fill="#000000"/>
        <text fill="#000000" font-family="sans-serif" font-size="14" lengthAdjust="spacing" textLength="57" x="1324" y="326.7842">ArrayList</text>
        <rect fill="#FFFFFF" height="15.9688" style="stroke:#000000;stroke-width:1.0;stroke-dasharray:2.0,2.0;" width="93" x="1389" y="302.9375"/>
        <text fill="#000000" font-family="sans-serif" font-size="12" font-style="italic" lengthAdjust="spacing" textLength="91" x="1390" y="315.0762">Interface_food</text>
        <line style="stroke:#A80036;stroke-width:1.5;" x1="1296" x2="1478" y1="337.9375" y2="337.9375"/>
        <line style="stroke:#A80036;stroke-width:1.5;" x1="1296" x2="1478" y1="345.9375" y2="345.9375"/>
        <!--MD5=[7dacb45e58122a4b1f27556785e5ee9a]
class io.github.xjrga.foods.Interface_dri-->
        <rect codeLine="9" fill="#FEFECE" filter="url(#f1tmjwss0sq7zl)" height="48" id="io.github.xjrga.foods.Interface_dri" style="stroke:#A80036;stroke-width:1.5;" width="117" x="247.5" y="89.9375"/>
        <ellipse cx="262.5" cy="105.9375" fill="#B4A7E5" rx="11" ry="11" style="stroke:#A80036;stroke-width:1.0;"/>
        <path d="M258.4219,101.7031 L258.4219,99.5469 L265.8125,99.5469 L265.8125,101.7031 L263.3438,101.7031 L263.3438,109.7813 L265.8125,109.7813 L265.8125,111.9375 L258.4219,111.9375 L258.4219,109.7813 L260.8906,109.7813 L260.8906,101.7031 L258.4219,101.7031 Z " fill="#000000"/>
        <text fill="#000000" font-family="sans-serif" font-size="14" font-style="italic" lengthAdjust="spacing" textLength="85" x="276.5" y="110.7842">Interface_dri</text>
        <line style="stroke:#A80036;stroke-width:1.5;" x1="248.5" x2="363.5" y1="121.9375" y2="121.9375"/>
        <line style="stroke:#A80036;stroke-width:1.5;" x1="248.5" x2="363.5" y1="129.9375" y2="129.9375"/>
        <!--MD5=[d54a54327cf512710e452a1dcf5c7618]
class io.github.xjrga.foods.Interface_dri_mutable-->
        <rect codeLine="10" fill="#FEFECE" filter="url(#f1tmjwss0sq7zl)" height="48" id="io.github.xjrga.foods.Interface_dri_mutable" style="stroke:#A80036;stroke-width:1.5;" width="180" x="32" y="89.9375"/>
        <ellipse cx="47" cy="105.9375" fill="#B4A7E5" rx="11" ry="11" style="stroke:#A80036;stroke-width:1.0;"/>
        <path d="M42.9219,101.7031 L42.9219,99.5469 L50.3125,99.5469 L50.3125,101.7031 L47.8438,101.7031 L47.8438,109.7813 L50.3125,109.7813 L50.3125,111.9375 L42.9219,111.9375 L42.9219,109.7813 L45.3906,109.7813 L45.3906,101.7031 L42.9219,101.7031 Z " fill="#000000"/>
        <text fill="#000000" font-family="sans-serif" font-size="14" font-style="italic" lengthAdjust="spacing" textLength="148" x="61" y="110.7842">Interface_dri_mutable</text>
        <line style="stroke:#A80036;stroke-width:1.5;" x1="33" x2="211" y1="121.9375" y2="121.9375"/>
        <line style="stroke:#A80036;stroke-width:1.5;" x1="33" x2="211" y1="129.9375" y2="129.9375"/>
        <!--MD5=[e84fb5d5dec21c385653d68123dacc72]
class io.github.xjrga.foods.Interface_food-->
        <rect codeLine="11" fill="#FEFECE" filter="url(#f1tmjwss0sq7zl)" height="48" id="io.github.xjrga.foods.Interface_food" style="stroke:#A80036;stroke-width:1.5;" width="131" x="629.5" y="89.9375"/>
        <ellipse cx="644.5" cy="105.9375" fill="#B4A7E5" rx="11" ry="11" style="stroke:#A80036;stroke-width:1.0;"/>
        <path d="M640.4219,101.7031 L640.4219,99.5469 L647.8125,99.5469 L647.8125,101.7031 L645.3438,101.7031 L645.3438,109.7813 L647.8125,109.7813 L647.8125,111.9375 L640.4219,111.9375 L640.4219,109.7813 L642.8906,109.7813 L642.8906,101.7031 L640.4219,101.7031 Z " fill="#000000"/>
        <text fill="#000000" font-family="sans-serif" font-size="14" font-style="italic" lengthAdjust="spacing" textLength="99" x="658.5" y="110.7842">Interface_food</text>
        <line style="stroke:#A80036;stroke-width:1.5;" x1="630.5" x2="759.5" y1="121.9375" y2="121.9375"/>
        <line style="stroke:#A80036;stroke-width:1.5;" x1="630.5" x2="759.5" y1="129.9375" y2="129.9375"/>
        <!--MD5=[46a6121b60701f0336e995874f643495]
class io.github.xjrga.foods.Interface_food_mutable-->
        <rect codeLine="12" fill="#FEFECE" filter="url(#f1tmjwss0sq7zl)" height="48" id="io.github.xjrga.foods.Interface_food_mutable" style="stroke:#A80036;stroke-width:1.5;" width="194" x="400" y="89.9375"/>
        <ellipse cx="415" cy="105.9375" fill="#B4A7E5" rx="11" ry="11" style="stroke:#A80036;stroke-width:1.0;"/>
        <path d="M410.9219,101.7031 L410.9219,99.5469 L418.3125,99.5469 L418.3125,101.7031 L415.8438,101.7031 L415.8438,109.7813 L418.3125,109.7813 L418.3125,111.9375 L410.9219,111.9375 L410.9219,109.7813 L413.3906,109.7813 L413.3906,101.7031 L410.9219,101.7031 Z " fill="#000000"/>
        <text fill="#000000" font-family="sans-serif" font-size="14" font-style="italic" lengthAdjust="spacing" textLength="162" x="429" y="110.7842">Interface_food_mutable</text>
        <line style="stroke:#A80036;stroke-width:1.5;" x1="401" x2="593" y1="121.9375" y2="121.9375"/>
        <line style="stroke:#A80036;stroke-width:1.5;" x1="401" x2="593" y1="129.9375" y2="129.9375"/>
        <!--MD5=[a9e18a06d5e58b84d8df81e0bcfef025]
class io.github.xjrga.foods.Abstract_dri-->
        <rect codeLine="14" fill="#FEFECE" filter="url(#f1tmjwss0sq7zl)" height="48" id="io.github.xjrga.foods.Abstract_dri" style="stroke:#A80036;stroke-width:1.5;" width="113" x="105.5" y="197.9375"/>
        <ellipse cx="120.5" cy="213.9375" fill="#A9DCDF" rx="11" ry="11" style="stroke:#A80036;stroke-width:1.0;"/>
        <path d="M120.6094,209.2813 L119.4531,214.3594 L121.7813,214.3594 L120.6094,209.2813 Z M119.125,207.0469 L122.1094,207.0469 L125.4688,219.4375 L123.0156,219.4375 L122.25,216.375 L118.9688,216.375 L118.2188,219.4375 L115.7813,219.4375 L119.125,207.0469 Z " fill="#000000"/>
        <text fill="#000000" font-family="sans-serif" font-size="14" font-style="italic" lengthAdjust="spacing" textLength="81" x="134.5" y="218.7842">Abstract_dri</text>
        <line style="stroke:#A80036;stroke-width:1.5;" x1="106.5" x2="217.5" y1="229.9375" y2="229.9375"/>
        <line style="stroke:#A80036;stroke-width:1.5;" x1="106.5" x2="217.5" y1="237.9375" y2="237.9375"/>
        <!--MD5=[f307d911908a82f7a331f28a3f5ab576]
class io.github.xjrga.foods.Abstract_food-->
        <rect codeLine="16" fill="#FEFECE" filter="url(#f1tmjwss0sq7zl)" height="48" id="io.github.xjrga.foods.Abstract_food" style="stroke:#A80036;stroke-width:1.5;" width="127" x="303.5" y="197.9375"/>
        <ellipse cx="318.5" cy="213.9375" fill="#A9DCDF" rx="11" ry="11" style="stroke:#A80036;stroke-width:1.0;"/>
        <path d="M318.6094,209.2813 L317.4531,214.3594 L319.7813,214.3594 L318.6094,209.2813 Z M317.125,207.0469 L320.1094,207.0469 L323.4688,219.4375 L321.0156,219.4375 L320.25,216.375 L316.9688,216.375 L316.2188,219.4375 L313.7813,219.4375 L317.125,207.0469 Z " fill="#000000"/>
        <text fill="#000000" font-family="sans-serif" font-size="14" font-style="italic" lengthAdjust="spacing" textLength="95" x="332.5" y="218.7842">Abstract_food</text>
        <line style="stroke:#A80036;stroke-width:1.5;" x1="304.5" x2="429.5" y1="229.9375" y2="229.9375"/>
        <line style="stroke:#A80036;stroke-width:1.5;" x1="304.5" x2="429.5" y1="237.9375" y2="237.9375"/>
        <!--MD5=[e2a86503eba7d2970b27dafcc613458c]
class io.github.xjrga.foods.Food_mutable-->
        <rect codeLine="18" fill="#FEFECE" filter="url(#f1tmjwss0sq7zl)" height="48" id="io.github.xjrga.foods.Food_mutable" style="stroke:#A80036;stroke-width:1.5;" width="130" x="466" y="197.9375"/>
        <ellipse cx="481" cy="213.9375" fill="#ADD1B2" rx="11" ry="11" style="stroke:#A80036;stroke-width:1.0;"/>
        <path d="M483.9688,219.5781 Q483.3906,219.875 482.75,220.0156 Q482.1094,220.1719 481.4063,220.1719 Q478.9063,220.1719 477.5781,218.5313 Q476.2656,216.875 476.2656,213.75 Q476.2656,210.625 477.5781,208.9688 Q478.9063,207.3125 481.4063,207.3125 Q482.1094,207.3125 482.75,207.4688 Q483.4063,207.625 483.9688,207.9219 L483.9688,210.6406 Q483.3438,210.0625 482.75,209.7969 Q482.1563,209.5156 481.5313,209.5156 Q480.1875,209.5156 479.5,210.5938 Q478.8125,211.6563 478.8125,213.75 Q478.8125,215.8438 479.5,216.9219 Q480.1875,217.9844 481.5313,217.9844 Q482.1563,217.9844 482.75,217.7188 Q483.3438,217.4375 483.9688,216.8594 L483.9688,219.5781 Z " fill="#000000"/>
        <text fill="#000000" font-family="sans-serif" font-size="14" lengthAdjust="spacing" textLength="98" x="495" y="218.7842">Food_mutable</text>
        <line style="stroke:#A80036;stroke-width:1.5;" x1="467" x2="595" y1="229.9375" y2="229.9375"/>
        <line style="stroke:#A80036;stroke-width:1.5;" x1="467" x2="595" y1="237.9375" y2="237.9375"/>
        <!--MD5=[0be62221c98dc9d463d100b352db8c1f]
class io.github.xjrga.foods.Food_multiplier-->
        <rect codeLine="19" fill="#FEFECE" filter="url(#f1tmjwss0sq7zl)" height="48" id="io.github.xjrga.foods.Food_multiplier" style="stroke:#A80036;stroke-width:1.5;" width="136" x="631" y="197.9375"/>
        <ellipse cx="646" cy="213.9375" fill="#ADD1B2" rx="11" ry="11" style="stroke:#A80036;stroke-width:1.0;"/>
        <path d="M648.9688,219.5781 Q648.3906,219.875 647.75,220.0156 Q647.1094,220.1719 646.4063,220.1719 Q643.9063,220.1719 642.5781,218.5313 Q641.2656,216.875 641.2656,213.75 Q641.2656,210.625 642.5781,208.9688 Q643.9063,207.3125 646.4063,207.3125 Q647.1094,207.3125 647.75,207.4688 Q648.4063,207.625 648.9688,207.9219 L648.9688,210.6406 Q648.3438,210.0625 647.75,209.7969 Q647.1563,209.5156 646.5313,209.5156 Q645.1875,209.5156 644.5,210.5938 Q643.8125,211.6563 643.8125,213.75 Q643.8125,215.8438 644.5,216.9219 Q645.1875,217.9844 646.5313,217.9844 Q647.1563,217.9844 647.75,217.7188 Q648.3438,217.4375 648.9688,216.8594 L648.9688,219.5781 Z " fill="#000000"/>
        <text fill="#000000" font-family="sans-serif" font-size="14" lengthAdjust="spacing" textLength="104" x="660" y="218.7842">Food_multiplier</text>
        <line style="stroke:#A80036;stroke-width:1.5;" x1="632" x2="766" y1="229.9375" y2="229.9375"/>
        <line style="stroke:#A80036;stroke-width:1.5;" x1="632" x2="766" y1="237.9375" y2="237.9375"/>
        <!--MD5=[00902a87e02705cc65597b01a52f1d89]
class io.github.xjrga.foods.Food_summator-->
        <rect codeLine="20" fill="#FEFECE" filter="url(#f1tmjwss0sq7zl)" height="48" id="io.github.xjrga.foods.Food_summator" style="stroke:#A80036;stroke-width:1.5;" width="144" x="897" y="197.9375"/>
        <ellipse cx="912" cy="213.9375" fill="#ADD1B2" rx="11" ry="11" style="stroke:#A80036;stroke-width:1.0;"/>
        <path d="M914.9688,219.5781 Q914.3906,219.875 913.75,220.0156 Q913.1094,220.1719 912.4063,220.1719 Q909.9063,220.1719 908.5781,218.5313 Q907.2656,216.875 907.2656,213.75 Q907.2656,210.625 908.5781,208.9688 Q909.9063,207.3125 912.4063,207.3125 Q913.1094,207.3125 913.75,207.4688 Q914.4063,207.625 914.9688,207.9219 L914.9688,210.6406 Q914.3438,210.0625 913.75,209.7969 Q913.1563,209.5156 912.5313,209.5156 Q911.1875,209.5156 910.5,210.5938 Q909.8125,211.6563 909.8125,213.75 Q909.8125,215.8438 910.5,216.9219 Q911.1875,217.9844 912.5313,217.9844 Q913.1563,217.9844 913.75,217.7188 Q914.3438,217.4375 914.9688,216.8594 L914.9688,219.5781 Z " fill="#000000"/>
        <text fill="#000000" font-family="sans-serif" font-size="14" lengthAdjust="spacing" textLength="112" x="926" y="218.7842">Food_summator</text>
        <line style="stroke:#A80036;stroke-width:1.5;" x1="898" x2="1040" y1="229.9375" y2="229.9375"/>
        <line style="stroke:#A80036;stroke-width:1.5;" x1="898" x2="1040" y1="237.9375" y2="237.9375"/>
        <!--MD5=[455339278f2f3b334b02d8fc67d71eae]
class io.github.xjrga.foods.Mangos_raw-->
        <rect codeLine="21" fill="#FEFECE" filter="url(#f1tmjwss0sq7zl)" height="48" id="io.github.xjrga.foods.Mangos_raw" style="stroke:#A80036;stroke-width:1.5;" width="118" x="308" y="305.9375"/>
        <ellipse cx="323" cy="321.9375" fill="#ADD1B2" rx="11" ry="11" style="stroke:#A80036;stroke-width:1.0;"/>
        <path d="M325.9688,327.5781 Q325.3906,327.875 324.75,328.0156 Q324.1094,328.1719 323.4063,328.1719 Q320.9063,328.1719 319.5781,326.5313 Q318.2656,324.875 318.2656,321.75 Q318.2656,318.625 319.5781,316.9688 Q320.9063,315.3125 323.4063,315.3125 Q324.1094,315.3125 324.75,315.4688 Q325.4063,315.625 325.9688,315.9219 L325.9688,318.6406 Q325.3438,318.0625 324.75,317.7969 Q324.1563,317.5156 323.5313,317.5156 Q322.1875,317.5156 321.5,318.5938 Q320.8125,319.6563 320.8125,321.75 Q320.8125,323.8438 321.5,324.9219 Q322.1875,325.9844 323.5313,325.9844 Q324.1563,325.9844 324.75,325.7188 Q325.3438,325.4375 325.9688,324.8594 L325.9688,327.5781 Z " fill="#000000"/>
        <text fill="#000000" font-family="sans-serif" font-size="14" lengthAdjust="spacing" textLength="86" x="337" y="326.7842">Mangos_raw</text>
        <line style="stroke:#A80036;stroke-width:1.5;" x1="309" x2="425" y1="337.9375" y2="337.9375"/>
        <line style="stroke:#A80036;stroke-width:1.5;" x1="309" x2="425" y1="345.9375" y2="345.9375"/>
        <!--MD5=[3e6de59cc75bb7c317ac8280ff0cb27e]
class io.github.xjrga.foods.Dri_daily_value-->
        <rect codeLine="22" fill="#FEFECE" filter="url(#f1tmjwss0sq7zl)" height="48" id="io.github.xjrga.foods.Dri_daily_value" style="stroke:#A80036;stroke-width:1.5;" width="131" x="96.5" y="305.9375"/>
        <ellipse cx="111.5" cy="321.9375" fill="#ADD1B2" rx="11" ry="11" style="stroke:#A80036;stroke-width:1.0;"/>
        <path d="M114.4688,327.5781 Q113.8906,327.875 113.25,328.0156 Q112.6094,328.1719 111.9063,328.1719 Q109.4063,328.1719 108.0781,326.5313 Q106.7656,324.875 106.7656,321.75 Q106.7656,318.625 108.0781,316.9688 Q109.4063,315.3125 111.9063,315.3125 Q112.6094,315.3125 113.25,315.4688 Q113.9063,315.625 114.4688,315.9219 L114.4688,318.6406 Q113.8438,318.0625 113.25,317.7969 Q112.6563,317.5156 112.0313,317.5156 Q110.6875,317.5156 110,318.5938 Q109.3125,319.6563 109.3125,321.75 Q109.3125,323.8438 110,324.9219 Q110.6875,325.9844 112.0313,325.9844 Q112.6563,325.9844 113.25,325.7188 Q113.8438,325.4375 114.4688,324.8594 L114.4688,327.5781 Z " fill="#000000"/>
        <text fill="#000000" font-family="sans-serif" font-size="14" lengthAdjust="spacing" textLength="99" x="125.5" y="326.7842">Dri_daily_value</text>
        <line style="stroke:#A80036;stroke-width:1.5;" x1="97.5" x2="226.5" y1="337.9375" y2="337.9375"/>
        <line style="stroke:#A80036;stroke-width:1.5;" x1="97.5" x2="226.5" y1="345.9375" y2="345.9375"/>
        <!--MD5=[810f3ee04e7cb186e92b907d981bc880]
class io.github.xjrga.foods.Coefficient_food-->
        <rect fill="#FEFECE" filter="url(#f1tmjwss0sq7zl)" height="48" id="io.github.xjrga.foods.Coefficient_food" style="stroke:#A80036;stroke-width:1.5;" width="143" x="795.5" y="89.9375"/>
        <ellipse cx="810.5" cy="105.9375" fill="#ADD1B2" rx="11" ry="11" style="stroke:#A80036;stroke-width:1.0;"/>
        <path d="M813.4688,111.5781 Q812.8906,111.875 812.25,112.0156 Q811.6094,112.1719 810.9063,112.1719 Q808.4063,112.1719 807.0781,110.5313 Q805.7656,108.875 805.7656,105.75 Q805.7656,102.625 807.0781,100.9688 Q808.4063,99.3125 810.9063,99.3125 Q811.6094,99.3125 812.25,99.4688 Q812.9063,99.625 813.4688,99.9219 L813.4688,102.6406 Q812.8438,102.0625 812.25,101.7969 Q811.6563,101.5156 811.0313,101.5156 Q809.6875,101.5156 809,102.5938 Q808.3125,103.6563 808.3125,105.75 Q808.3125,107.8438 809,108.9219 Q809.6875,109.9844 811.0313,109.9844 Q811.6563,109.9844 812.25,109.7188 Q812.8438,109.4375 813.4688,108.8594 L813.4688,111.5781 Z " fill="#000000"/>
        <text fill="#000000" font-family="sans-serif" font-size="14" lengthAdjust="spacing" textLength="111" x="824.5" y="110.7842">Coefficient_food</text>
        <line style="stroke:#A80036;stroke-width:1.5;" x1="796.5" x2="937.5" y1="121.9375" y2="121.9375"/>
        <line style="stroke:#A80036;stroke-width:1.5;" x1="796.5" x2="937.5" y1="129.9375" y2="129.9375"/>
        <!--MD5=[ba5044e77b68fa983ebd462853f0c1f9]
class io.github.xjrga.foods.Coefficient_nutrient-->
        <rect fill="#FEFECE" filter="url(#f1tmjwss0sq7zl)" height="48" id="io.github.xjrga.foods.Coefficient_nutrient" style="stroke:#A80036;stroke-width:1.5;" width="166" x="974" y="89.9375"/>
        <ellipse cx="989" cy="105.9375" fill="#ADD1B2" rx="11" ry="11" style="stroke:#A80036;stroke-width:1.0;"/>
        <path d="M991.9688,111.5781 Q991.3906,111.875 990.75,112.0156 Q990.1094,112.1719 989.4063,112.1719 Q986.9063,112.1719 985.5781,110.5313 Q984.2656,108.875 984.2656,105.75 Q984.2656,102.625 985.5781,100.9688 Q986.9063,99.3125 989.4063,99.3125 Q990.1094,99.3125 990.75,99.4688 Q991.4063,99.625 991.9688,99.9219 L991.9688,102.6406 Q991.3438,102.0625 990.75,101.7969 Q990.1563,101.5156 989.5313,101.5156 Q988.1875,101.5156 987.5,102.5938 Q986.8125,103.6563 986.8125,105.75 Q986.8125,107.8438 987.5,108.9219 Q988.1875,109.9844 989.5313,109.9844 Q990.1563,109.9844 990.75,109.7188 Q991.3438,109.4375 991.9688,108.8594 L991.9688,111.5781 Z " fill="#000000"/>
        <text fill="#000000" font-family="sans-serif" font-size="14" lengthAdjust="spacing" textLength="134" x="1003" y="110.7842">Coefficient_nutrient</text>
        <line style="stroke:#A80036;stroke-width:1.5;" x1="975" x2="1139" y1="121.9375" y2="121.9375"/>
        <line style="stroke:#A80036;stroke-width:1.5;" x1="975" x2="1139" y1="129.9375" y2="129.9375"/>
        <!--MD5=[3d09552a1e5e53c15c8ae4d52d183b26]
class io.github.xjrga.foods.Chef-->
        <rect fill="#FEFECE" filter="url(#f1tmjwss0sq7zl)" height="48" id="io.github.xjrga.foods.Chef" style="stroke:#A80036;stroke-width:1.5;" width="64" x="1175" y="89.9375"/>
        <ellipse cx="1190" cy="105.9375" fill="#ADD1B2" rx="11" ry="11" style="stroke:#A80036;stroke-width:1.0;"/>
        <path d="M1192.9688,111.5781 Q1192.3906,111.875 1191.75,112.0156 Q1191.1094,112.1719 1190.4063,112.1719 Q1187.9063,112.1719 1186.5781,110.5313 Q1185.2656,108.875 1185.2656,105.75 Q1185.2656,102.625 1186.5781,100.9688 Q1187.9063,99.3125 1190.4063,99.3125 Q1191.1094,99.3125 1191.75,99.4688 Q1192.4063,99.625 1192.9688,99.9219 L1192.9688,102.6406 Q1192.3438,102.0625 1191.75,101.7969 Q1191.1563,101.5156 1190.5313,101.5156 Q1189.1875,101.5156 1188.5,102.5938 Q1187.8125,103.6563 1187.8125,105.75 Q1187.8125,107.8438 1188.5,108.9219 Q1189.1875,109.9844 1190.5313,109.9844 Q1191.1563,109.9844 1191.75,109.7188 Q1192.3438,109.4375 1192.9688,108.8594 L1192.9688,111.5781 Z " fill="#000000"/>
        <text fill="#000000" font-family="sans-serif" font-size="14" lengthAdjust="spacing" textLength="32" x="1204" y="110.7842">Chef</text>
        <line style="stroke:#A80036;stroke-width:1.5;" x1="1176" x2="1238" y1="121.9375" y2="121.9375"/>
        <line style="stroke:#A80036;stroke-width:1.5;" x1="1176" x2="1238" y1="129.9375" y2="129.9375"/>
        <!--MD5=[cbf202b8bcdf39dd5513dac5970d93c9]
reverse link io.github.xjrga.foods.Interface_dri to io.github.xjrga.foods.Abstract_dri-->
        <path d="M258.54,149.8775 C237.24,165.5475 212.7,183.6175 193.68,197.6175 " fill="none" id="io.github.xjrga.foods.Interface_dri-backto-io.github.xjrga.foods.Abstract_dri" style="stroke:#A80036;stroke-width:1.0;stroke-dasharray:7.0,7.0;"/>
        <polygon fill="none" points="254.5,144.1575,274.75,137.9375,262.8,155.4275,254.5,144.1575" style="stroke:#A80036;stroke-width:1.0;"/>
        <!--MD5=[6eb77c1f81e4f4d6a00714d6bd47ca21]
reverse link io.github.xjrga.foods.Interface_dri_mutable to io.github.xjrga.foods.Abstract_dri-->
        <path d="M137.87,156.9975 C143.09,170.8275 148.7,185.6975 153.2,197.6175 " fill="none" id="io.github.xjrga.foods.Interface_dri_mutable-backto-io.github.xjrga.foods.Abstract_dri" style="stroke:#A80036;stroke-width:1.0;stroke-dasharray:7.0,7.0;"/>
        <polygon fill="none" points="131.19,159.1175,130.68,137.9375,144.29,154.1775,131.19,159.1175" style="stroke:#A80036;stroke-width:1.0;"/>
        <!--MD5=[036acf7435f7f3da5dc7ba694e3b1fb7]
reverse link io.github.xjrga.foods.Interface_food to io.github.xjrga.foods.Abstract_food-->
        <path d="M610.3,142.3075 C554.17,160.4475 481.72,183.8675 430.52,200.4075 " fill="none" id="io.github.xjrga.foods.Interface_food-backto-io.github.xjrga.foods.Abstract_food" style="stroke:#A80036;stroke-width:1.0;stroke-dasharray:7.0,7.0;"/>
        <polygon fill="none" points="608.23,135.6275,629.41,136.1375,612.53,148.9475,608.23,135.6275" style="stroke:#A80036;stroke-width:1.0;"/>
        <!--MD5=[26af418298e445185cfbed53fa0e1267]
reverse link io.github.xjrga.foods.Interface_food_mutable to io.github.xjrga.foods.Abstract_food-->
        <path d="M453.01,150.8075 C434.05,166.2675 412.43,183.8975 395.6,197.6175 " fill="none" id="io.github.xjrga.foods.Interface_food_mutable-backto-io.github.xjrga.foods.Abstract_food" style="stroke:#A80036;stroke-width:1.0;stroke-dasharray:7.0,7.0;"/>
        <polygon fill="none" points="448.87,145.1475,468.79,137.9375,457.72,155.9975,448.87,145.1475" style="stroke:#A80036;stroke-width:1.0;"/>
        <!--MD5=[e488ad006249624fb2ec0398e0b6f594]
reverse link io.github.xjrga.foods.Interface_food to io.github.xjrga.foods.Food_mutable-->
        <path d="M642.32,148.9875 C617.65,164.9275 588.9,183.5175 566.8,197.7975 " fill="none" id="io.github.xjrga.foods.Interface_food-backto-io.github.xjrga.foods.Food_mutable" style="stroke:#A80036;stroke-width:1.0;stroke-dasharray:7.0,7.0;"/>
        <polygon fill="none" points="638.82,142.9175,659.41,137.9375,646.42,154.6775,638.82,142.9175" style="stroke:#A80036;stroke-width:1.0;"/>
        <!--MD5=[b3473fa434d7a38fc38ccaa2a0984fef]
reverse link io.github.xjrga.foods.Interface_food_mutable to io.github.xjrga.foods.Food_mutable-->
        <path d="M510.49,156.9975 C514.93,170.8275 519.7,185.6975 523.52,197.6175 " fill="none" id="io.github.xjrga.foods.Interface_food_mutable-backto-io.github.xjrga.foods.Food_mutable" style="stroke:#A80036;stroke-width:1.0;stroke-dasharray:7.0,7.0;"/>
        <polygon fill="none" points="503.82,159.1175,504.38,137.9375,517.15,154.8475,503.82,159.1175" style="stroke:#A80036;stroke-width:1.0;"/>
        <!--MD5=[5264dfe4edd38a77d71e9ae22bc08aca]
reverse link io.github.xjrga.foods.Interface_food to io.github.xjrga.foods.Food_multiplier-->
        <path d="M684.08,157.9575 C684.03,171.5175 685.17,185.9775 687.35,197.6175 " fill="none" id="io.github.xjrga.foods.Interface_food-backto-io.github.xjrga.foods.Food_multiplier" style="stroke:#A80036;stroke-width:1.0;stroke-dasharray:7.0,7.0;"/>
        <polygon fill="none" points="677.09,157.5375,685.14,137.9375,691.07,158.2775,677.09,157.5375" style="stroke:#A80036;stroke-width:1.0;"/>
        <!--MD5=[5264dfe4edd38a77d71e9ae22bc08aca]
reverse link io.github.xjrga.foods.Interface_food to io.github.xjrga.foods.Food_multiplier-->
        <path codeLine="23" d="M708.14,143.0675 C710.88,160.0875 711.46,181.5375 709.53,197.6175 " fill="none" id="io.github.xjrga.foods.Interface_food-backto-io.github.xjrga.foods.Food_multiplier-1" style="stroke:#A80036;stroke-width:1.0;stroke-dasharray:7.0,7.0;"/>
        <polygon fill="#A80036" points="707.22,137.9375,704.875,147.5031,708.1044,142.8587,712.7488,146.0881,707.22,137.9375" style="stroke:#A80036;stroke-width:1.0;"/>
        <!--MD5=[e9e418e95378078b1fdba427f0068c4b]
reverse link io.github.xjrga.foods.Interface_food to io.github.xjrga.foods.Food_summator-->
        <path d="M773.24,145.2075 C816.46,161.9275 869.3,182.3675 909.19,197.7975 " fill="none" id="io.github.xjrga.foods.Interface_food-backto-io.github.xjrga.foods.Food_summator" style="stroke:#A80036;stroke-width:1.0;stroke-dasharray:7.0,7.0;"/>
        <polygon fill="none" points="770.58,151.6875,754.45,137.9375,775.63,138.6275,770.58,151.6875" style="stroke:#A80036;stroke-width:1.0;"/>
        <!--MD5=[3bf87c610b5a35cb556201cdc58ee3a8]
reverse link io.github.xjrga.foods.Abstract_food to io.github.xjrga.foods.Mangos_raw-->
        <path d="M367,265.9575 C367,279.5175 367,293.9775 367,305.6175 " fill="none" id="io.github.xjrga.foods.Abstract_food-backto-io.github.xjrga.foods.Mangos_raw" style="stroke:#A80036;stroke-width:1.0;"/>
        <polygon fill="none" points="360,265.9375,367,245.9375,374,265.9375,360,265.9375" style="stroke:#A80036;stroke-width:1.0;"/>
        <!--MD5=[d3295d7adad4a9700e1ccf3d24559079]
reverse link io.github.xjrga.foods.Abstract_dri to io.github.xjrga.foods.Dri_daily_value-->
        <path d="M162,265.9575 C162,279.5175 162,293.9775 162,305.6175 " fill="none" id="io.github.xjrga.foods.Abstract_dri-backto-io.github.xjrga.foods.Dri_daily_value" style="stroke:#A80036;stroke-width:1.0;"/>
        <polygon fill="none" points="155,265.9375,162,245.9375,169,265.9375,155,265.9375" style="stroke:#A80036;stroke-width:1.0;"/>
        <!--MD5=[825b93faf4eff0ee7faed49d031ba867]
link io.github.xjrga.foods.Food_summator to java.util.ArrayList-->
        <path codeLine="24" d="M1041.2,236.1275 C1061.18,239.5575 1082.9,243.0875 1103,245.9375 C1170.31,255.4675 1189.81,243.6575 1255,262.9375 C1286.69,272.3075 1319.95,288.9875 1345.16,303.2375 " fill="none" id="io.github.xjrga.foods.Food_summator-to-java.util.ArrayList" style="stroke:#A80036;stroke-width:1.0;stroke-dasharray:7.0,7.0;"/>
        <polygon fill="#A80036" points="1349.77,305.8675,1343.9263,297.9396,1345.4244,303.3945,1339.9695,304.8926,1349.77,305.8675" style="stroke:#A80036;stroke-width:1.0;"/>
        <!--MD5=[4fd545b23eecfc75b9fdc29940deb93d]
link io.github.xjrga.foods.Coefficient_food to java.util.ArrayList-->
        <path codeLine="25" d="M919.8,137.9375 C995.87,170.8775 1132.8,229.3475 1184,245.9375 C1214.87,255.9375 1224.51,251.8275 1255,262.9375 C1285.03,273.8775 1317.13,289.8275 1342.16,303.3075 " fill="none" id="io.github.xjrga.foods.Coefficient_food-to-java.util.ArrayList" style="stroke:#A80036;stroke-width:1.0;stroke-dasharray:7.0,7.0;"/>
        <polygon fill="#A80036" points="1346.75,305.7875,1340.7448,297.9813,1342.3545,303.4042,1336.9316,305.014,1346.75,305.7875" style="stroke:#A80036;stroke-width:1.0;"/>
        <!--MD5=[7145abf6474c9c1b0ebc136df250e5e2]
link io.github.xjrga.foods.Coefficient_nutrient to java.util.ArrayList-->
        <path codeLine="26" d="M1092.63,138.0475 C1154.64,178.2575 1281.98,260.8375 1346.95,302.9675 " fill="none" id="io.github.xjrga.foods.Coefficient_nutrient-to-java.util.ArrayList" style="stroke:#A80036;stroke-width:1.0;stroke-dasharray:7.0,7.0;"/>
        <polygon fill="#A80036" points="1351.52,305.9275,1346.152,297.6701,1347.3271,303.2036,1341.7937,304.3787,1351.52,305.9275" style="stroke:#A80036;stroke-width:1.0;"/>
        <!--MD5=[e32aab7d78ce40d5455ff19cb298cf08]
reverse link io.github.xjrga.foods.Chef to java.util.ArrayList-->
        <path codeLine="27" d="M1235.13,148.3775 C1271.92,192.1175 1335.45,267.6475 1367.42,305.6575 " fill="none" id="io.github.xjrga.foods.Chef-backto-java.util.ArrayList" style="stroke:#A80036;stroke-width:1.0;stroke-dasharray:7.0,7.0;"/>
        <polygon fill="#FFFFFF" points="1226.61,138.2475,1227.4095,145.4141,1234.3323,147.4326,1233.5329,140.2659,1226.61,138.2475" style="stroke:#A80036;stroke-width:1.0;"/>
        <!--MD5=[1da58f5aa5f36adf68712eb5eda10411]
@startuml
title Simple Uml Diagram For Foods Library (Not all relationships shown)
<style>
title {
  HorizontalAlignment center
  FontSize 24
}
</style>
class java.util.ArrayList<Interface_food>
interface io.github.xjrga.foods.Interface_dri
interface io.github.xjrga.foods.Interface_dri_mutable
interface io.github.xjrga.foods.Interface_food
interface io.github.xjrga.foods.Interface_food_mutable
abstract class io.github.xjrga.foods.Abstract_dri implements io.github.xjrga.foods.Interface_dri
abstract class io.github.xjrga.foods.Abstract_dri implements io.github.xjrga.foods.Interface_dri_mutable
abstract class io.github.xjrga.foods.Abstract_food implements io.github.xjrga.foods.Interface_food
abstract class io.github.xjrga.foods.Abstract_food implements io.github.xjrga.foods.Interface_food_mutable
class io.github.xjrga.foods.Food_mutable implements io.github.xjrga.foods.Interface_food
class io.github.xjrga.foods.Food_mutable implements io.github.xjrga.foods.Interface_food_mutable
class io.github.xjrga.foods.Food_multiplier implements io.github.xjrga.foods.Interface_food
class io.github.xjrga.foods.Food_summator implements io.github.xjrga.foods.Interface_food
class io.github.xjrga.foods.Mangos_raw extends io.github.xjrga.foods.Abstract_food
class io.github.xjrga.foods.Dri_daily_value extends io.github.xjrga.foods.Abstract_dri
io.github.xjrga.foods.Interface_food <.. io.github.xjrga.foods.Food_multiplier
io.github.xjrga.foods.Food_summator ..> java.util.ArrayList 
io.github.xjrga.foods.Coefficient_food ..> java.util.ArrayList 
io.github.xjrga.foods.Coefficient_nutrient ..> java.util.ArrayList
io.github.xjrga.foods.Chef o.. java.util.ArrayList
@enduml

PlantUML version 1.2021.3(Mon Mar 22 11:53:19 CDT 2021)
(GPL source distribution)
Java Runtime: OpenJDK Runtime Environment
JVM: OpenJDK 64-Bit Server VM
Default Encoding: UTF-8
Language: en
Country: US
-->
    </g>
</svg>
